<svg width="16" height="16" viewBox="0 0 16 16" xmlns="http://www.w3.org/2000/svg" xmlns:xlink="http://www.w3.org/1999/xlink"><title>icn/abuse</title><path d="M11.034 1.33l3.401 2.719c.357.285.565.717.565 1.174v5.552c0 .457-.207.888-.564 1.174l-3.4 2.721c-.266.214-.597.33-.939.33H5.905c-.341 0-.672-.116-.939-.33l-3.401-2.719A1.503 1.503 0 0 1 1 10.777V5.225c0-.457.207-.888.564-1.174l3.4-2.721c.266-.214.597-.33.939-.33h4.192c.341 0 .672.116.939.33zM9.919 3.003H6.08L3.004 5.466v5.07l3.077 2.46h3.84l3.075-2.462v-5.07l-3.077-2.46zm-1.941.97c.553 0 1.002.449 1.002 1.002v3.007a1.002 1.002 0 0 1-2.004 0V4.976c0-.553.448-1.002 1.002-1.002zm0 8.018a1.002 1.002 0 1 1 0-2.005 1.002 1.002 0 0 1 0 2.005z" id="a"/></svg>