<svg width="16" height="16" viewBox="0 0 16 16" xmlns="http://www.w3.org/2000/svg" xmlns:xlink="http://www.w3.org/1999/xlink"><title>icn/account</title><path d="M8.186 9.964l-.568-.875a.25.25 0 0 1 .015-.293l.404-.499a.25.25 0 0 1 .284-.076l.936.36c.257-.183.543-.325.85-.42l.322-.988A.25.25 0 0 1 10.667 7h.641a.25.25 0 0 1 .238.173l.321.988c.308.095.594.237.851.42l.936-.36a.25.25 0 0 1 .284.076l.403.499a.25.25 0 0 1 .016.293l-.568.875c.113.297.18.617.193.951l.898.54a.25.25 0 0 1 .114.27l-.144.626a.25.25 0 0 1-.222.192l-1.113.098c-.143.225-.316.43-.512.609l.165 1.18a.25.25 0 0 1-.138.259l-.576.281a.25.25 0 0 1-.29-.05l-.873-.905a3.028 3.028 0 0 1-.607 0l-.874.904a.25.25 0 0 1-.29.051l-.576-.281a.25.25 0 0 1-.138-.26l.166-1.18a3.014 3.014 0 0 1-.513-.608l-1.113-.098a.25.25 0 0 1-.221-.192l-.145-.625a.25.25 0 0 1 .115-.27l.898-.54c.013-.335.08-.655.193-.952zm-1.778 3.034C1.071 12.953 1 12.28 1 10.84 1 9.349 1.963 7 6.992 7c.338 0 .657.01.959.03A4.994 4.994 0 0 0 5.994 11c0 .71.148 1.386.414 1.998zM6.47 6a2.498 2.498 0 0 1-2.497-2.5C3.973 2.12 5.09 1 6.47 1a2.498 2.498 0 0 1 2.496 2.5C8.966 4.88 7.85 6 6.47 6zm4.517 6a1 1 0 1 0 0-1.999 1 1 0 0 0 0 1.999z" id="a"/></svg>