<svg width="16" height="16" viewBox="0 0 16 16" xmlns="http://www.w3.org/2000/svg" xmlns:xlink="http://www.w3.org/1999/xlink"><title>icn/wrench</title><path d="M12.38 2.549a3.662 3.662 0 0 1 .151 3.832 3.478 3.478 0 0 1-3.313 1.782l-3.419 6.068a1.48 1.48 0 0 1-2.049.563 1.558 1.558 0 0 1-.549-2.1L6.62 6.626a3.662 3.662 0 0 1-.15-3.832 3.478 3.478 0 0 1 3.313-1.783L8.12 3.964 10.718 5.5l1.663-2.952zM4.25 13.906c.24.142.545.058.683-.187a.52.52 0 0 0-.183-.7.493.493 0 0 0-.683.187.52.52 0 0 0 .183.7z" id="a"/></svg>