<svg width="16" height="16" viewBox="0 0 16 16" xmlns="http://www.w3.org/2000/svg" xmlns:xlink="http://www.w3.org/1999/xlink"><title>icn/appearance</title><path d="M11 10.5c-.893 0-1.5.228-1.5.5 0 .117.214.343.735.633.189.104.869.44.828.419.175.09.304.164.422.251.3.223.505.482.514.937.012 1.322-1.004 1.644-2.81 1.737a21.32 21.32 0 0 1-1.19.022A7 7 0 1 1 8 1c3.866 0 7 3.134 7 6.977.043 1.917-1.163 2.54-3.13 2.535-.13 0-.235-.002-.45-.007A18.799 18.799 0 0 0 11 10.5zm-3.5.5c0-1.089.658-1.829 1.648-2.2.582-.22 1.224-.3 1.851-.3.127 0 .223 0 .462.006.203.004.3.006.413.006.99.002 1.135-.072 1.125-.513a5 5 0 1 0-5 5c.272 0 .474-.001.65-.004-.728-.526-1.15-1.144-1.15-1.996zM6 7a1 1 0 1 1 0-2 1 1 0 0 1 0 2zm-1 3a1 1 0 1 1 0-2 1 1 0 0 1 0 2zm4-4a1 1 0 1 1 0-2 1 1 0 0 1 0 2z" id="a"/></svg>