<svg width="16" height="16" viewBox="0 0 16 16" xmlns="http://www.w3.org/2000/svg" xmlns:xlink="http://www.w3.org/1999/xlink"><title>icn/approval</title><path d="M10.487 9.657l2.815-2.829a.991.991 0 0 1 1.407 0c.388.391.388 1.024 0 1.415l-3.518 3.535a.99.99 0 0 1-1.407 0l-2.11-2.121a1.004 1.004 0 0 1 0-1.414.991.991 0 0 1 1.406 0l1.407 1.414zM6.623 8.004a2.008 2.008 0 0 0 .347 2.36l2.11 2.121a1.983 1.983 0 0 0 2.814 0l1.025-1.03c.014.133.02.261.02.385 0 1.533-.075 2.16-5.97 2.16C1.077 14 1 13.331 1 11.84c0-1.456.914-3.73 5.623-3.836zM6.449 7A2.494 2.494 0 0 1 3.96 4.5C3.961 3.12 5.075 2 6.45 2a2.494 2.494 0 0 1 2.487 2.5C8.936 5.88 7.823 7 6.45 7z" id="a"/></svg>