<svg width="16" height="16" viewBox="0 0 16 16" xmlns="http://www.w3.org/2000/svg" xmlns:xlink="http://www.w3.org/1999/xlink"><title>icn/bold</title><path d="M4 12.5v-9A1.5 1.5 0 0 1 5.5 2h2.104c2.182 0 3.879.681 3.879 2.982 0 1.067-.517 2.227-1.374 2.595v.073C11.176 7.963 12 8.865 12 10.466 12 12.914 10.19 14 7.911 14H5.5A1.5 1.5 0 0 1 4 12.5zm2.376-5.696H7.49c1.164 0 1.665-.552 1.665-1.417 0-.94-.534-1.289-1.649-1.289H6.376v2.706zm0 5.098h1.341c1.293 0 1.956-.515 1.956-1.62 0-1.049-.647-1.472-1.956-1.472H6.376v3.092z" id="a"/></svg>