<svg width="16" height="16" viewBox="0 0 16 16" xmlns="http://www.w3.org/2000/svg" xmlns:xlink="http://www.w3.org/1999/xlink"><title>icn/branch</title><path d="M4 11.268V4.732a2 2 0 1 1 2 0v3.583c.628-.388 1.37-.665 2.219-.831 1.025-.2 1.61-1.044 1.729-2.783A1.999 1.999 0 0 1 11 1a2 2 0 0 1 .946 3.763c-.174 2.627-1.279 4.28-3.344 4.684-1.315.257-2.151.819-2.602 1.706v.115a2 2 0 1 1-2 0zM5 4a1 1 0 1 0 0-2 1 1 0 0 0 0 2zm6 0a1 1 0 1 0 0-2 1 1 0 0 0 0 2zM5 14a1 1 0 1 0 0-2 1 1 0 0 0 0 2z" id="a"/></svg>