<svg xmlns="http://www.w3.org/2000/svg" width="16" height="16" viewBox="0 0 16 16">
  <path d="M5.8541291,13 L10.1459357,13 C10.422078,13 10.6459357,13.2238576 10.6459357,13.5 C10.6459357,13.6130827 10.6076026,13.7228259 10.5371939,13.8113149 L9.74151748,14.8113149 C9.64665664,14.9305353 9.50261435,15 9.35025925,15 L6.64980552,15 C6.49745042,15 6.35340813,14.9305353 6.25854729,14.8113149 L5.46287087,13.8113149 C5.29093637,13.595229 5.32672819,13.2806763 5.54281415,13.1087418 C5.63130323,13.0383331 5.74104639,13 5.8541291,13 Z M9.54248047,8.37322998 C9.87332264,7.82838581 10.5560303,7.05123901 10.7922058,6.59564209 C10.9838336,6.22598041 10.9931641,5.82785634 10.9931641,5.43779292 C10.9931641,5.04772949 10.7631893,4.34785843 10.1745911,3.81048584 C9.67173953,3.35139738 8.91345401,3.00035395 7.99072266,3.00035395 C6.0541687,3.00035395 5,4.49243164 5,5.43779292 C5,5.77792635 4.98847923,6.25122354 5.19107056,6.59564209 C5.56295776,7.22787476 6.12948106,7.77980707 6.4486084,8.24858393 C7.01403809,9.0791626 7.01403809,10.0087158 7.01403809,10.0087158 C7.01403809,10.0087158 7.33959961,10.0087158 7.99072266,10.0087158 C8.68530273,10.0087158 9.03259277,10.0087158 9.03259277,10.0087158 C9.03259277,10.0087158 9.0335083,9.21142578 9.54248047,8.37322998 Z M11.0293579,10.1836751 C11.0293579,10.4557834 11.0293579,10.7278917 11.0293579,11 C11.0293579,11.5522847 10.5816427,12 10.0293579,12 L8,12 L6.03118896,12 C5.47890422,12 5.03118896,11.5522847 5.03118896,11 C5.03118896,10.7278917 5.03118896,10.4557834 5.03118896,10.1836751 C5.03118896,8.75714714 3,8.36997986 3,5.58333333 C3,3.05202823 5.23857625,1 8,1 C10.7614237,1 13,3.05202823 13,5.58333333 C13,8.28628031 11.0293579,8.76861572 11.0293579,10.1836751 Z M7.99858603,4.91957481 C7.94275984,4.93269976 7.88767114,4.94903425 7.83359996,4.96852461 C7.63031361,5.04180073 7.44140969,5.15968414 7.28176981,5.31932402 C7.07544518,5.52564864 6.93887682,5.78085264 6.87820502,6.05279886 C6.85177381,6.17127013 6.73803699,6.50117529 6.34689319,6.50117529 C5.95574939,6.50117529 5.84315165,6.2066581 5.86411408,6.04924928 C5.9350494,5.51658965 6.177217,5.00966326 6.57466302,4.61221724 C6.88560895,4.30127131 7.2935803,4.04106726 7.68780937,3.94358316 C7.79573304,3.91689603 7.90262682,3.90240376 8.00621812,3.90240376 C8.17428577,3.90240376 8.56378162,3.96461523 8.56378162,4.37571753 C8.56378162,4.78681982 8.1183792,4.89141097 7.99858603,4.91957481 Z"/>
</svg>
