<svg xmlns="http://www.w3.org/2000/svg" xmlns:xlink="http://www.w3.org/1999/xlink" width="16" height="16" viewBox="0 0 16 16">
  
    <path id="canceled-circle-a" d="M8,15 C4.13400675,15 1,11.8659932 1,8 C1,4.13400675 4.13400675,1 8,1 C11.8659932,1 15,4.13400675 15,8 C15,11.8659932 11.8659932,15 8,15 Z M8,13 C10.7614237,13 13,10.7614237 13,8 C13,5.23857625 10.7614237,3 8,3 C5.23857625,3 3,5.23857625 3,8 C3,10.7614237 5.23857625,13 8,13 Z M9.59090909,10.8636364 L5.13636364,6.40909091 C4.95454545,6.22727273 4.95454545,5.95454545 5.13636364,5.77272727 L5.77272727,5.13636364 C5.95454545,4.95454545 6.22727273,4.95454545 6.40909091,5.13636364 L10.8636364,9.59090909 C11.0454545,9.77272727 11.0454545,10.0454545 10.8636364,10.2272727 L10.2272727,10.8636364 C10.0454545,11.0454545 9.77272727,11.0454545 9.59090909,10.8636364 Z"/>
  
  
</svg>
