<svg width="16" height="16" viewBox="0 0 16 16" xmlns="http://www.w3.org/2000/svg" xmlns:xlink="http://www.w3.org/1999/xlink"><title>icn/car</title><path d="M13.295 8l.442 1.5A1.95 1.95 0 0 1 13 11.638v.862a.5.5 0 0 1-.5.5h-1a.5.5 0 0 1-.5-.5V12H5v.5a.5.5 0 0 1-.5.5h-1a.5.5 0 0 1-.5-.5v-.862A1.946 1.946 0 0 1 2.263 9.5L2.705 8H2a1 1 0 1 1 0-2h1c.159 0 .31.037.443.104l.397-1.59A2 2 0 0 1 5.78 3h4.44a2 2 0 0 1 1.94 1.515l.397 1.588A.996.996 0 0 1 13 6h1a1 1 0 0 1 0 2h-.705zm-3.232-3H5.937a.2.2 0 0 0-.194.151l-.4 1.6A.2.2 0 0 0 5.537 7h4.926a.2.2 0 0 0 .194-.249l-.4-1.6A.2.2 0 0 0 10.063 5zM4.5 10a.5.5 0 1 0 0 1h1a.5.5 0 1 0 0-1h-1zm6 0a.5.5 0 1 0 0 1h1a.5.5 0 1 0 0-1h-1z" id="a"/></svg>