<svg width="16" height="16" viewBox="0 0 16 16" xmlns="http://www.w3.org/2000/svg" xmlns:xlink="http://www.w3.org/1999/xlink"><title>icn/check-circle</title><path d="M8 0C3.595 0 0 3.595 0 8c0 4.405 3.595 8 8 8 4.405 0 8-3.595 8-8 0-4.405-3.595-8-8-8zm0 2.184A5.8 5.8 0 0 1 13.816 8 5.8 5.8 0 0 1 8 13.816 5.8 5.8 0 0 1 2.184 8 5.8 5.8 0 0 1 8 2.184zm2.43 3.33a1.15 1.15 0 0 0-.791.347L7.23 8.27l-.777-.79a1.15 1.15 0 1 0-1.637 1.616l1.59 1.613a1.15 1.15 0 0 0 1.633.006l3.227-3.227a1.15 1.15 0 0 0-.836-1.974z" id="a"/></svg>