<svg height="16" viewBox="0 0 16 16" width="16" xmlns="http://www.w3.org/2000/svg"><path d="m.00383229 7.13596362h2.05207948c.48378946 1.68856106 2.06455579 2.91172308 3.91769847 2.87963878 2.20880253-.03824202 3.96813594-1.84530509 3.92958115-4.03618835-.01689044-.95980225-.37812656-1.85546601-.99395251-2.54964934l-1.46518679 1.50493643c-.06039515.06203364-.143161.0977293-.23009.09923434-.18102027.00313409-.33032765-.13988065-.33348737-.31943237l-.07581967-4.30846705c-.00315972-.17955171.14102474-.32764782.32204501-.3307819l4.34370604-.07520457c.086929-.00150505.1709004.03130382.2334414.09120901.130235.1247461.1338574.33059255.008091.45977091l-1.4103232 1.4485844c.9899467 1.05680617 1.5749655 2.45033373 1.6012715 3.9451785.0578322 3.28632489-2.58116795 5.99691949-5.89437175 6.05428249-2.97496494.051507-5.4819533-2.05365607-6.00468276-4.86311128zm11.99616771-1.27953697v.36437527c.0037907-.12193585.0037619-.2434408 0-.36437527zm-11.91589897 1.18034824h2.04400752zm1.91637067-.99188733h-2.0004717c.00022308-.4757306.05837321-.95909779.17964144-1.44153229.02065557-.08217286.04294079-.16351689.06681298-.24400665l1.90206576.61757056c-.00988484.03521394-.01931659.07066703-.02828728.10635462-.08089582.32182319-.11966049.64426896-.1197612.96161376zm.61134398-2.11038593-1.67011458-1.09302731c.39270096-.610749.89098053-1.13779503 1.46345283-1.56243256l1.05428823 1.70037587c-.32906339.26818442-.61656772.58950314-.84762648.955084zm1.24720865-3.450952c.61361597-.23324711 1.26915954-.36805789 1.94239147-.38998608v1.98591053c-.4420616.02178366-.87184019.1165018-1.27377003.27487748z" fill-rule="evenodd" transform="translate(2 2)"/></svg>