<svg height="16" viewBox="0 0 16 16" width="16" xmlns="http://www.w3.org/2000/svg"><path d="m8 16c4.418278 0 8-3.581722 8-8s-3.581722-8-8-8-8 3.581722-8 8 3.581722 8 8 8zm0-9.41421356 2.1213203-2.12132035c.3905243-.39052429 1.0236893-.39052429 1.4142136 0 .3905243.3905243.3905243 1.02368927 0 1.41421357l-2.12132034 2.12132034 2.12132034 2.1213203c.3905243.3905243.3905243 1.0236893 0 1.4142136s-1.0236893.3905243-1.4142136 0l-2.1213203-2.12132034-2.12132034 2.12132034c-.3905243.3905243-1.02368927.3905243-1.41421357 0-.39052429-.3905243-.39052429-1.0236893 0-1.4142136l2.12132035-2.1213203-2.12132035-2.12132034c-.39052429-.3905243-.39052429-1.02368927 0-1.41421357.3905243-.39052429 1.02368927-.39052429 1.41421357 0z"/></svg>