<svg width="16" height="16" viewBox="0 0 16 16" xmlns="http://www.w3.org/2000/svg">
  <title>
    cloud-gear
  </title>
  <path d="M8.20820688 9.96475796l-.56861441-.87385956c-.05911545-.09084998-.0529539-.20944456.01525803-.29367927l.4012461-.49549768c.06821193-.08423471.18293388-.11491881.28408935-.07598395l.93287404.35906436c.25634196-.18283429.542633-.32605306.85003341-.42077421l.3202796-.98875855c.0334011-.10311508.129444-.17296065.2378338-.17296065h.6375864c.1083898 0 .2044327.06984557.2378338.17296065l.3202796.98875855c.3074004.09472115.5936914.23793992.8500334.42077421l.932874-.35906436c.1011555-.03893486.2158775-.00825076.2840894.07598395l.4012461.49549768c.0682119.08423471.0743735.20282929.015258.29367927l-.5686144.87385956c.1136368.29945234.1809246.62189404.1930516.95847124l.8970856.5379206c.0929586.0557409.1394091.1650341.1150267.2706459l-.1434258.621245c-.0243824.1056118-.1140427.1834813-.2220286.1928305l-1.1092176.096034c-.1436759.2270389-.3168792.4333644-.5141782.613519l.1669226 1.1799782c.015182.1073213-.0405225.2122006-.1379427.2597155l-.5730588.2794995c-.0974201.047515-.2143612.0268406-.2895846-.0511965l-.8711983-.9037853c-.0997156.0101026-.2008789.0152769-.303245.0152769-.1023661 0-.2035294-.0051743-.303245-.0152769l-.87119831.9037853c-.07522341.0780371-.19216447.0987115-.2895846.0511965l-.57305883-.2794995c-.09742014-.0475149-.15312463-.1523942-.13794269-.2597155l.16692263-1.1799782c-.19729901-.1801546-.37050227-.3864801-.51417819-.613519l-1.10921761-.096034c-.10798586-.0093492-.19764624-.0872187-.22202864-.1928305l-.14342573-.621245c-.0243824-.1056118.02206808-.214905.1150267-.2706459l.89708554-.5379206c.01212708-.3365772.07941484-.6590189.19305161-.95847124zm6.69565852-2.08647815c-.5260644-.65671371-1.2142788-1.17782674-2.0039115-1.50258424C12.6370961 5.57761736 11.8857973 5.00153897 11 5.00153897c-.0874657 0-.1736201.0056168-.2581224.01650951C10.3984783 4.4109244 9.74707422 4.00115423 9 4.00115423c-.41165878 0-.79426906.12441926-1.11230522.33771849C7.61434225 3.55955609 6.87240183 3.00076948 6 3.00076948c-1.1045695 0-2 .89577501-2 2.00076949 0 .08749939.00561464.17368691.01650316.25822167C3.40961258 5.60329211 3 6.25494681 3 7.00230845c0 1.10499448.8954305 2.00076949 2 2.00076949h1.41604369C6.1484475 9.61577593 6 10.2924691 6 11.0038474H5c-2.209139 0-4-1.79155-4-4.00153895 0-1.03069517.39365342-1.99349757 1.06408857-2.71808188C2.40198455 2.41654134 4.03563042 1 6 1c1.01005658 0 1.94808779.37793665 2.66207058 1.01457574.11187159-.00942437.22459702-.014191.33792942-.014191 1.0302988 0 1.9927309.39380488 2.7170365 1.06449797C13.5840035 3.4029087 15 5.0371831 15 7.00230845c0 .30090295-.0331997.5940487-.0961346.87597136zM11 12.0042322c.5498607 0 .9956109-.4478875.9956109-1.0003848 0-.5524972-.4457502-1.0003847-.9956109-1.0003847s-.9956109.4478875-.9956109 1.0003847c0 .5524973.4457502 1.0003848.9956109 1.0003848z"/>
</svg>
