<!-- Licensed to the Apache Software Foundation (ASF) under one or more
contributor license agreements.  See the NOTICE file distributed with
this work for additional information regarding copyright ownership.
The ASF licenses this file to You under the Apache License, Version 2.0
(the "License"); you may not use this file except in compliance with
the License.  You may obtain a copy of the License at

     http://www.apache.org/licenses/LICENSE-2.0

Unless required by applicable law or agreed to in writing, software
distributed under the License is distributed on an "AS IS" BASIS,
WITHOUT WARRANTIES OR CONDITIONS OF ANY KIND, either express or implied.
See the License for the specific language governing permissions and
limitations under the License. -->

<svg width="16" height="16" viewBox="0 0 16 16" xmlns="http://www.w3.org/2000/svg" xmlns:xlink="http://www.w3.org/1999/xlink"><title>icn/code</title><path d="M16 8.157c0-.257-.1-.514-.3-.71l-2.89-2.84a1.035 1.035 0 0 0-1.445 0 .991.991 0 0 0 0 1.42l2.168 2.13-2.168 2.13a.991.991 0 0 0 0 1.419c.4.392 1.046.392 1.445 0l2.89-2.84c.2-.195.3-.452.3-.71zm-13.533 0l2.168-2.13a.991.991 0 0 0 0-1.42 1.035 1.035 0 0 0-1.445 0L.3 7.447a.992.992 0 0 0 0 1.42l2.89 2.839c.399.392 1.046.392 1.445 0a.991.991 0 0 0 0-1.42l-2.168-2.13zm6.547-4.123c.546.144.87.694.723 1.23L8.15 11.082a1.024 1.024 0 0 1-1.252.71 1.002 1.002 0 0 1-.722-1.23l1.587-5.818a1.024 1.024 0 0 1 1.251-.71z" id="a"/></svg>