<svg xmlns="http://www.w3.org/2000/svg" width="16" height="16" viewBox="0 0 16 16">
    <path d="M10.0000008,4 L10.0000008,5.99949787 L13.0000008,5.99949787 C14.1045703,5.99949787 15.0000008,6.89492837 15,8.0013395 C14.9989829,9.10489096 14.1035532,9.99867165 13.0000017,9.99765454 L10.0000008,9.99304622 L10.0000008,11.9989551 C10.0000008,12.2265682 9.92235153,12.4473711 9.77988223,12.6248824 C9.43419211,13.055599 8.80479011,13.1245266 8.37407351,12.7788365 L4.37648952,8.76781055 C4.31898664,8.72165914 4.2667644,8.66928957 4.22077517,8.6116569 C3.87629986,8.17996811 3.94700035,7.55076279 4.37868913,7.20628748 L8.37627313,3.21835831 C8.55342973,3.0769924 8.77335402,3 9.00000085,3 C9.5522856,3 10.0000008,3.44771525 10.0000008,4 Z M2.5,1 C2.77614237,1 3,1.22385763 3,1.5 L3,14.5 C3,14.7761424 2.77614237,15 2.5,15 L1.5,15 C1.22385763,15 1,14.7761424 1,14.5 L1,1.5 C1,1.22385763 1.22385763,1 1.5,1 L2.5,1 Z"/>
</svg>
