<svg xmlns="http://www.w3.org/2000/svg" width="16" height="16" viewBox="0 0 16 16">
  <path d="M5.99999915,4 C5.99999915,3.44771525 6.4477144,3 6.99999915,3 C7.22664598,3 7.44657027,3.0769924 7.62372687,3.21835831 L11.6213109,7.20628748 C12.0529996,7.55076279 12.1237001,8.17996811 11.7792248,8.6116569 C11.7332356,8.66928957 11.6810134,8.72165914 11.6235105,8.76781055 L7.62592649,12.7788365 C7.19520989,13.1245266 6.56580789,13.055599 6.22011777,12.6248824 C6.07764847,12.4473711 5.99999915,12.2265682 5.99999915,11.9989551 L5.99999915,9.99304622 L2.9999983,9.99765454 C1.89644684,9.99867165 1.0010171,9.10489096 1,8.0013395 C0.999999151,6.89492837 1.89542965,5.99949787 2.99999915,5.99949787 L5.99999915,5.99949787 L5.99999915,4 Z M13.5,1 L14.5,1 C14.7761424,1 15,1.22385763 15,1.5 L15,14.5 C15,14.7761424 14.7761424,15 14.5,15 L13.5,15 C13.2238576,15 13,14.7761424 13,14.5 L13,1.5 C13,1.22385763 13.2238576,1 13.5,1 Z"/>
</svg>
