<svg width="16" height="16" viewBox="0 0 16 16" xmlns="http://www.w3.org/2000/svg"><title>icn/comparison</title><path d="M10 4v.793a.5.5 0 0 1-.854.353L7.354 3.354a.5.5 0 0 1 0-.708L9.146.854a.5.5 0 0 1 .854.353V2a3 3 0 0 1 3 3v6.268a2 2 0 1 1-2 0V5a1 1 0 0 0-1-1zm-4 8v-.793a.5.5 0 0 1 .854-.353l1.792 1.792a.5.5 0 0 1 0 .708l-1.792 1.792A.5.5 0 0 1 6 14.793V14a3 3 0 0 1-3-3V4.732a2 2 0 1 1 2 0V11a1 1 0 0 0 1 1zM4 4a1 1 0 1 0 0-2 1 1 0 0 0 0 2zm8 8a1 1 0 1 0 0 2 1 1 0 0 0 0-2z" fill="#000" fill-rule="nonzero"/></svg>