<svg width="16" height="16" viewBox="0 0 16 16" xmlns="http://www.w3.org/2000/svg" xmlns:xlink="http://www.w3.org/1999/xlink"><title>icn/doc-code</title><path d="M8 3H5a1 1 0 0 0-1 1v8a1 1 0 0 0 1 1h6a1 1 0 0 0 1-1V7H9a1 1 0 0 1-1-1V3zM5 1h4.244a2 2 0 0 1 1.434.606l2.756 2.834A2 2 0 0 1 14 5.835V12a3 3 0 0 1-3 3H5a3 3 0 0 1-3-3V4a3 3 0 0 1 3-3zm5.879 8.777l-1.172 1.108a.431.431 0 0 1-.586 0 .377.377 0 0 1 0-.554L10 9.5l-.879-.831a.377.377 0 0 1 0-.554.431.431 0 0 1 .586 0l1.172 1.108A.38.38 0 0 1 11 9.5c0 .1-.04.2-.121.277zm-4 .554a.377.377 0 0 1 0 .554.431.431 0 0 1-.586 0L5.12 9.777A.38.38 0 0 1 5 9.5c0-.1.04-.2.121-.277l1.172-1.108a.431.431 0 0 1 .586 0 .377.377 0 0 1 0 .554L6 9.5l.879.831z" id="a"/></svg>