<svg xmlns="http://www.w3.org/2000/svg" width="105" height="26" viewBox="0 0 105 26"><path fill-rule="evenodd" d="M1.018 11.089L15.138.614c1.23-.911 3.086-.795 4.147.26.461.46.715 1.045.715 1.651v20.95C20 24.869 18.684 26 17.06 26a3.238 3.238 0 0 1-1.921-.614L1.019 14.911C-.212 14-.347 12.405.714 11.35c.094-.094.195-.18.303-.261zm102.964 0c.108.08.21.167.303.26 1.061 1.056.925 2.65-.303 3.562l-14.12 10.475A3.238 3.238 0 0 1 87.94 26C86.316 26 85 24.87 85 23.475V2.525c0-.606.254-1.192.715-1.65 1.061-1.056 2.917-1.172 4.146-.26l14.12 10.474zM35 17a4 4 0 1 1 0-8 4 4 0 0 1 0 8zm18 0a4 4 0 1 1 0-8 4 4 0 0 1 0 8zm18 0a4 4 0 1 1 0-8 4 4 0 0 1 0 8z"/></svg>