<svg width="16" height="16" viewBox="0 0 16 16" xmlns="http://www.w3.org/2000/svg" xmlns:xlink="http://www.w3.org/1999/xlink"><title>icn/download</title><path d="M9 12.165h.793c.133 0 .26.054.353.149a.513.513 0 0 1 0 .718l-1.792 1.82a.495.495 0 0 1-.708 0l-1.792-1.82a.511.511 0 0 1-.147-.36c0-.28.224-.507.5-.507H7v-4.06c0-.56.448-1.015 1-1.015s1 .455 1 1.015v4.06zm2-1.015c-.552 0-1-.454-1-1.015 0-.56.448-1.015 1-1.015 1.105 0 2-.909 2-2.03 0-1.121-.895-2.03-2-2.03a1.99 1.99 0 0 0-.258.017A1.995 1.995 0 0 0 9 4.045a1.97 1.97 0 0 0-1.112.343A2.003 2.003 0 0 0 6 3.03c-1.105 0-2 .909-2 2.03 0 .089.006.176.017.262A2.035 2.035 0 0 0 3 7.09c0 1.121.895 2.03 2 2.03.552 0 1 .455 1 1.015 0 .56-.448 1.015-1 1.015-2.21 0-4-1.818-4-4.06 0-1.046.394-2.023 1.064-2.758C2.402 2.437 4.036 1 6 1c1.01 0 1.948.383 2.662 1.03a3.962 3.962 0 0 1 3.055 1.066c1.867.342 3.283 2 3.283 3.994 0 2.242-1.79 4.06-4 4.06z" id="a"/></svg>