<!-- Licensed to the Apache Software Foundation (ASF) under one or more
contributor license agreements.  See the NOTICE file distributed with
this work for additional information regarding copyright ownership.
The ASF licenses this file to You under the Apache License, Version 2.0
(the "License"); you may not use this file except in compliance with
the License.  You may obtain a copy of the License at

     http://www.apache.org/licenses/LICENSE-2.0

Unless required by applicable law or agreed to in writing, software
distributed under the License is distributed on an "AS IS" BASIS,
WITHOUT WARRANTIES OR CONDITIONS OF ANY KIND, either express or implied.
See the License for the specific language governing permissions and
limitations under the License. -->

<svg width="16" height="16" viewBox="0 0 16 16" xmlns="http://www.w3.org/2000/svg" xmlns:xlink="http://www.w3.org/1999/xlink"><title>icn/epic</title><path d="M5.156 4l-.811 2h7.31l-.811-2H5.156zM4.55 2h6.9c.368 0 .702.235.85.6l1.622 4c.205.505-.009 1.095-.478 1.316a.87.87 0 0 1-.371.084H2.927C2.415 8 2 7.552 2 7c0-.138.026-.274.078-.4l1.622-4c.148-.365.481-.6.85-.6zM3 9h10a1 1 0 0 1 0 2H3a1 1 0 0 1 0-2zm0 3h10a1 1 0 0 1 0 2H3a1 1 0 0 1 0-2z" id="a"/></svg>