<svg xmlns="http://www.w3.org/2000/svg" width="16" height="16" viewBox="0 0 16 16">
  <path d="M9.0023784,4 C9.0023784,3.44771525 9.45009365,3 10.0023784,3 C10.2290252,3 10.4489495,3.0769924 10.6261061,3.21835831 L14.6236901,7.20628748 C15.0553789,7.55076279 15.1260794,8.17996811 14.7816041,8.6116569 C14.7356148,8.66928957 14.6833926,8.72165914 14.6258897,8.76781055 L10.6283057,12.7788365 C10.1975891,13.1245266 9.56818713,13.055599 9.22249701,12.6248824 C9.08002771,12.4473711 9.0023784,12.2265682 9.0023784,11.9989551 L9.0023784,9.99304622 L6.00237755,9.99765454 C4.89882609,9.99867165 4.00339635,9.10489096 4.00237924,8.0013395 C4.0023784,6.89492837 4.8978089,5.99949787 6.0023784,5.99949787 L9.0023784,5.99949787 L9.0023784,4 Z M2.5,1 C2.77614237,1 3,1.22385763 3,1.5 L3,14.5 C3,14.7761424 2.77614237,15 2.5,15 L1.5,15 C1.22385763,15 1,14.7761424 1,14.5 L1,1.5 C1,1.22385763 1.22385763,1 1.5,1 L2.5,1 Z"/>
</svg>
