<svg xmlns="http://www.w3.org/2000/svg" width="16" height="16" viewBox="0 0 16 16">
	<path d="M6.9976216,4 L6.9976216,5.99949787 L9.9976216,5.99949787 C11.1021911,5.99949787 11.9976216,6.89492837 11.9976208,8.0013395 C11.9966037,9.10489096 11.1011739,9.99867165 9.99762245,9.99765454 L6.9976216,9.99304622 L6.9976216,11.9989551 C6.9976216,12.2265682 6.91997229,12.4473711 6.77750299,12.6248824 C6.43181287,13.055599 5.80241086,13.1245266 5.37169427,12.7788365 L1.37411028,8.76781055 C1.31660739,8.72165914 1.26438516,8.66928957 1.21839593,8.6116569 C0.873920618,8.17996811 0.944621107,7.55076279 1.37630989,7.20628748 L5.37389388,3.21835831 C5.55105049,3.0769924 5.77097478,3 5.9976216,3 C6.54990635,3 6.9976216,3.44771525 6.9976216,4 Z M13.5,1 L14.5,1 C14.7761424,1 15,1.22385763 15,1.5 L15,14.5 C15,14.7761424 14.7761424,15 14.5,15 L13.5,15 C13.2238576,15 13,14.7761424 13,14.5 L13,1.5 C13,1.22385763 13.2238576,1 13.5,1 Z"/>
</svg>
