<svg width="16" height="16" viewBox="0 0 16 16" xmlns="http://www.w3.org/2000/svg" xmlns:xlink="http://www.w3.org/1999/xlink"><title>icn/eye-slash</title><path d="M2.638 10.676a10.548 10.548 0 0 1-1.431-1.92 1.483 1.483 0 0 1 0-1.511C2.855 4.453 5.15 3 8 3c.716 0 1.396.092 2.04.273l1.567-1.566a1 1 0 0 1 1.414 1.414l-9.9 9.9a1 1 0 1 1-1.414-1.414l.93-.931zm5.668-5.669A6.337 6.337 0 0 0 8 5c-2.053 0-3.692.966-5 3 .319.496.657.928 1.016 1.298l.999-.999a3 3 0 0 1 3.284-3.284l.007-.008zm-2.76 7.59l1.649-1.65c.26.036.53.053.805.053 2.053 0 3.692-.966 5-3a7.91 7.91 0 0 0-1.292-1.566l1.383-1.383c.627.603 1.195 1.335 1.702 2.194a1.483 1.483 0 0 1 0 1.51C13.145 11.547 10.85 13 8 13a7.37 7.37 0 0 1-2.454-.404zm1.693-1.694l3.664-3.664a3 3 0 0 1-3.663 3.663z" id="a"/></svg>