<svg width="16" height="16" viewBox="0 0 16 16" xmlns="http://www.w3.org/2000/svg" xmlns:xlink="http://www.w3.org/1999/xlink"><title>icn/eye</title><path d="M7.906 11c1.98 0 3.562-.966 4.824-3-1.262-2.034-2.843-3-4.824-3a3 3 0 0 1 0 6zm-.002 0a3 3 0 0 1 0-6c-1.98 0-3.56.967-4.82 3 1.26 2.033 2.84 3 4.82 3zm.002 2c-2.812 0-5.075-1.453-6.702-4.245a1.5 1.5 0 0 1 0-1.51C2.831 4.453 5.094 3 7.906 3c2.813 0 5.076 1.453 6.703 4.245a1.5 1.5 0 0 1 0 1.51C12.982 11.547 10.719 13 7.906 13zM9 8a1 1 0 1 0 0-2 1 1 0 0 0 0 2z" id="a"/></svg>