<!-- Licensed to the Apache Software Foundation (ASF) under one or more
contributor license agreements.  See the NOTICE file distributed with
this work for additional information regarding copyright ownership.
The ASF licenses this file to You under the Apache License, Version 2.0
(the "License"); you may not use this file except in compliance with
the License.  You may obtain a copy of the License at

     http://www.apache.org/licenses/LICENSE-2.0

Unless required by applicable law or agreed to in writing, software
distributed under the License is distributed on an "AS IS" BASIS,
WITHOUT WARRANTIES OR CONDITIONS OF ANY KIND, either express or implied.
See the License for the specific language governing permissions and
limitations under the License. -->

<svg width="16" height="16" viewBox="0 0 16 16" xmlns="http://www.w3.org/2000/svg" xmlns:xlink="http://www.w3.org/1999/xlink"><title>icn/file-additions</title><path d="M7 7V5a1 1 0 1 1 2 0v2h2a1 1 0 0 1 0 2H9v2a1 1 0 0 1-2 0V9H5a1 1 0 1 1 0-2h2zM4.25 2h7.5A2.25 2.25 0 0 1 14 4.25v7.5A2.25 2.25 0 0 1 11.75 14h-7.5A2.25 2.25 0 0 1 2 11.75v-7.5A2.25 2.25 0 0 1 4.25 2zm.179 1C3.639 3 3 3.64 3 4.429v7.142C3 12.361 3.64 13 4.429 13h7.142c.79 0 1.429-.64 1.429-1.429V4.43C13 3.639 12.36 3 11.571 3H4.43z" id="a"/></svg>