<!-- Licensed to the Apache Software Foundation (ASF) under one or more
contributor license agreements.  See the NOTICE file distributed with
this work for additional information regarding copyright ownership.
The ASF licenses this file to You under the Apache License, Version 2.0
(the "License"); you may not use this file except in compliance with
the License.  You may obtain a copy of the License at

     http://www.apache.org/licenses/LICENSE-2.0

Unless required by applicable law or agreed to in writing, software
distributed under the License is distributed on an "AS IS" BASIS,
WITHOUT WARRANTIES OR CONDITIONS OF ANY KIND, either express or implied.
See the License for the specific language governing permissions and
limitations under the License. -->

<svg width="16px" height="16px" viewBox="0 0 16 16" version="1.1" xmlns="http://www.w3.org/2000/svg">
    <path d="M4.75,7.5 L10,7.5 L10,6.5 C10,6.22385763 10.2238576,6 10.5,6 L11.4484203,6 C11.6762345,6 11.875246,6.15399554 11.9324188,6.37451892 L11.997483,6.62548108 C12.0546558,6.84600446 12.2536673,7 12.4814815,7 L14.5,7 C14.7761424,7 15,7.22385763 15,7.5 L15,9.5 C15,9.77614237 14.7761424,10 14.5,10 L10.5,10 C10.2238576,10 10,9.77614237 10,9.5 L10,9 L4.75,9 L4.75,12.25 L10,12.25 L10,11.5 C10,11.2238576 10.2238576,11 10.5,11 L11.4484203,11 C11.6762345,11 11.875246,11.1539955 11.9324188,11.3745189 L11.997483,11.6254811 C12.0546558,11.8460045 12.2536673,12 12.4814815,12 L14.5,12 C14.7761424,12 15,12.2238576 15,12.5 L15,14.5 C15,14.7761424 14.7761424,15 14.5,15 L10.5,15 C10.2238576,15 10,14.7761424 10,14.5 L10,13.75 L4.25,13.75 C3.69771525,13.75 3.25,13.3022847 3.25,12.75 L3.25,6 L1.6,6 C1.26862915,6 1,5.72017797 1,5.375 L1,1.625 C1,1.27982203 1.26862915,1 1.6,1 L2.73810438,1 C3.01148136,1 3.25029525,1.19249442 3.31890252,1.46814865 L3.39697964,1.78185135 C3.46558691,2.05750558 3.70440081,2.25 3.97777778,2.25 L6.4,2.25 C6.73137085,2.25 7,2.52982203 7,2.875 L7,5.375 C7,5.72017797 6.73137085,6 6.4,6 L4.75,6 L4.75,7.5 Z" fill-rule="nonzero"></path>
</svg>