<svg width="16" height="16" viewBox="0 0 16 16" xmlns="http://www.w3.org/2000/svg"><title>food</title><path d="M5.172 12.243a1 1 0 1 1-1.415 1.414 1 1 0 0 1 1.415-1.414 1 1 0 0 1-1.415 0 1 1 0 1 1 0-1.415l1.415-1.414c.03-.03.06-.057.093-.082a4.002 4.002 0 0 1 .614-4.868L7.293 3.05a4 4 0 1 1 5.657 5.657l-1.414 1.414a4.002 4.002 0 0 1-4.868.614 1.01 1.01 0 0 1-.082.093l-1.414 1.415zm6.364-7.779a2 2 0 0 0-2.829 0L7.293 5.88a2 2 0 1 0 2.828 2.828l1.415-1.414a2 2 0 0 0 0-2.829z" fill="#000" fill-rule="nonzero"/></svg>