<svg width="16" height="16" viewBox="0 0 16 16" xmlns="http://www.w3.org/2000/svg" xmlns:xlink="http://www.w3.org/1999/xlink"><title>icn/group</title><path d="M3.05 11.983c-2.346-.063-2.037-.335-2.037-1.423C1.013 9.235 1.653 8 5 8l.171.001c.163.46.434.867.783 1.193-1.78.388-2.715 1.347-2.904 2.789zM6.846 4.23A3 3 0 0 0 5 7a2 2 0 1 1 1.846-2.77zm6.104 7.753c-.19-1.442-1.124-2.401-2.904-2.79.35-.325.62-.733.783-1.192L11 8c3.346 0 3.987 1.235 3.987 2.56 0 1.088.309 1.36-2.037 1.423zM9.154 4.23A2 2 0 1 1 11 7a3 3 0 0 0-1.846-2.77zM8 9a2 2 0 1 1 0-4 2 2 0 0 1 0 4zm0 5c-4.446 0-3.987-.115-3.987-1.44S4.653 10 8 10c3.346 0 3.987 1.235 3.987 2.56S12.446 14 8 14z" id="a"/></svg>