<svg width="16" height="16" viewBox="0 0 16 16" xmlns="http://www.w3.org/2000/svg"><title>heart</title><path d="M8.297 11.698a14.143 14.143 0 0 0 1.846-1.377c1.479-1.293 2.52-2.691 2.79-3.802A2 2 0 0 0 9.5 4.677L8.224 6.123a.3.3 0 0 1-.45 0L6.501 4.678A2 2 0 0 0 3.068 6.52c.269 1.11 1.31 2.508 2.789 3.8.623.546 1.28 1.032 1.846 1.378.107.065.206.123.297.173.09-.05.19-.108.297-.173zM7.25 2.693L8 3.354l.75-.661a4 4 0 0 1 6.127 4.298C14.014 10.541 8.918 14 8 14c-.919 0-6.015-3.46-6.876-7.009A4 4 0 0 1 7.25 2.693z" fill="#000" fill-rule="nonzero"/></svg>