<svg xmlns="http://www.w3.org/2000/svg" width="16" height="16" viewBox="0 0 16 16">
  <path d="M12.9664631,9.05318543 L12.9664631,12.4835679 C12.9664631,13.2694897 12.4157862,14 11.5758505,14 L4.424129,14 C3.5841933,14 3.03351648,13.2694897 3.03351648,12.4835679 L3.03351648,9.05318543 L2.01982858,9.05318543 C1.46754383,9.05318543 1.01982858,8.60547018 1.01982858,8.05318543 C1.01982858,7.75875901 1.14957786,7.47929467 1.37448896,7.28928964 L7.35465015,2.23724591 C7.7272891,1.9224403 8.27269042,1.9224403 8.64532938,2.23724591 L14.6254906,7.28928964 C15.0473786,7.64570087 15.100458,8.27663705 14.7440467,8.69852505 C14.5540417,8.92343615 14.2745774,9.05318543 13.980151,9.05318543 L12.9664631,9.05318543 Z M10.9798737,9.05318543 L5.02010579,9.05318543 L5.02010579,12.0212742 L7.00669511,12.0212742 C7.00669511,11.4748641 7.45140827,11.0319113 7.99998976,11.0319113 C8.54857126,11.0319113 8.99328442,11.4748641 8.99328442,12.0212742 L10.9798737,12.0212742 L10.9798737,9.05318543 Z M7.95726853,4.24771421 L4.59554286,7.07447389 L11.3738944,7.07447389 L7.95726853,4.24771421 Z"/>
</svg>
