<svg width="16" height="16" viewBox="0 0 16 16" xmlns="http://www.w3.org/2000/svg" xmlns:xlink="http://www.w3.org/1999/xlink"><title>icn/hook</title><path d="M2 11h-.655A.336.336 0 0 1 1 10.674c0-.065.02-.128.058-.181l1.655-2.348a.357.357 0 0 1 .574 0l1.655 2.348a.315.315 0 0 1-.096.452.36.36 0 0 1-.191.055H4v.5a1.5 1.5 0 0 0 3 0V9a3 3 0 0 1-3-3V4a3 3 0 0 1 3-3h2a3 3 0 0 1 3 3v2a3 3 0 0 1-3 3v2.5a1.5 1.5 0 0 0 3 0V11h-.655a.336.336 0 0 1-.345-.326c0-.065.02-.128.058-.181l1.655-2.348a.357.357 0 0 1 .574 0l1.655 2.348a.315.315 0 0 1-.096.452.36.36 0 0 1-.191.055H14v.5a3.5 3.5 0 0 1-6 2.45 3.5 3.5 0 0 1-6-2.45V11zm8-7a1 1 0 0 0-1-1H7a1 1 0 0 0-1 1h4zm0 2H6a1 1 0 0 0 1 1h2a1 1 0 0 0 1-1z" id="a"/></svg>