<svg width="16" height="16" viewBox="0 0 16 16" xmlns="http://www.w3.org/2000/svg" xmlns:xlink="http://www.w3.org/1999/xlink"><title>icn/hourglass</title><path d="M4 13v-1a4.002 4.002 0 0 1 2.97-3.866.311.311 0 0 0 .03-.126.332.332 0 0 0-.039-.144A4.002 4.002 0 0 1 4 4V3a1 1 0 1 1 0-2h8a1 1 0 0 1 0 2v1a4.002 4.002 0 0 1-2.97 3.866A.346.346 0 0 0 9 8c0 .042.01.087.03.134A4.002 4.002 0 0 1 12 12v1a1 1 0 0 1 0 2H4a1 1 0 0 1 0-2zm6 0v-1a2 2 0 1 0-4 0v1h4zm0-10H6v1c0 .057.002.112.007.168l3.824.637C9.94 4.56 10 4.286 10 4V3z" id="a"/></svg>