<svg xmlns="http://www.w3.org/2000/svg" width="16" height="16" viewBox="0 0 16 16">
  <path fill-rule="evenodd" d="M8,15 C4.13400675,15 1,11.8659932 1,8 C1,4.13400675 4.13400675,1 8,1 C11.8659932,1 15,4.13400675 15,8 C15,11.8659932 11.8659932,15 8,15 Z M5.68156566,11.2078815 L7.04744612,9.84200096 L9.84210526,9.84200096 C10.4525252,9.84200096 10.9473684,9.34715781 10.9473684,8.73673781 L10.9473684,6.52631579 C10.9473684,5.91589578 10.4525252,5.42105263 9.84210526,5.42105263 L6.15789474,5.42105263 C5.54747477,5.42105263 5.05263158,5.91589578 5.05263158,6.52631579 L5.05263158,10.9473684 C5.05263158,11.2755965 5.44947333,11.4399737 5.68156566,11.2078815 Z M5.78947368,10.0579213 L5.78947368,6.52631579 C5.78947368,6.32284244 5.95442143,6.15789474 6.15789474,6.15789474 L9.84210526,6.15789474 C10.0455786,6.15789474 10.2105263,6.32284244 10.2105263,6.52631579 L10.2105263,8.73673781 C10.2105263,8.94021115 10.0455786,9.10515886 9.84210526,9.10515886 L6.89484114,9.10515886 C6.7971298,9.10515886 6.70342047,9.14397456 6.63432811,9.21306688 L5.78947368,10.0579213 Z"/>
</svg>
