<svg xmlns="http://www.w3.org/2000/svg" width="16" height="16" viewBox="0 0 16 16">
  <path d="M7,14 C3.13415789,14 -1.77635684e-15,10.8658421 -1.77635684e-15,7 C-1.77635684e-15,3.13415789 3.13415789,-1.77635684e-15 7,-1.77635684e-15 C10.8658421,-1.77635684e-15 14,3.13415789 14,7 C14,10.8658421 10.8658421,14 7,14 Z M7,13.2631579 C10.4591053,13.2631579 13.2631579,10.4591053 13.2631579,7 C13.2631579,3.54089474 10.4591053,0.736842105 7,0.736842105 C3.54089474,0.736842105 0.736842105,3.54089474 0.736842105,7 C0.736842105,10.4591053 3.54089474,13.2631579 7,13.2631579 Z M4.68152632,10.2078421 C4.44942105,10.4399474 4.05263158,10.2756316 4.05263158,9.94736842 L4.05263158,5.52631579 C4.05263158,4.9158958 4.54747475,4.42105263 5.15789474,4.42105263 L8.84210526,4.42105263 C9.45252525,4.42105263 9.94736842,4.9158958 9.94736842,5.52631579 L9.94736842,7.73684211 C9.94736842,8.34726209 9.45252525,8.84210526 8.84210526,8.84210526 L6.04726316,8.84210526 L4.68152632,10.2078421 Z M4.78947368,9.058 L5.63426316,8.21321053 C5.70333943,8.14411339 5.79703349,8.10528402 5.89473684,8.10526316 L8.84210526,8.10526316 C9.04557859,8.10526316 9.21052632,7.94031543 9.21052632,7.73684211 L9.21052632,5.52631579 C9.21052632,5.32284246 9.04557859,5.15789474 8.84210526,5.15789474 L5.15789474,5.15789474 C4.95442141,5.15789474 4.78947368,5.32284246 4.78947368,5.52631579 L4.78947368,9.058 Z" transform="translate(1 1)"/>
</svg>
