<svg xmlns="http://www.w3.org/2000/svg" width="16" height="16" viewBox="0 0 16 16">
  <path fill-rule="evenodd" d="M7,10.75 L7,7.75 L6.14669503,7.75 C6.04889834,7.58333333 6,7.41666667 6,7.25 C6,7.08333333 6.04889834,6.91666667 6.14669503,6.75 L9,6.75 L9,7.75 L9,10.75 L9.77320761,10.75 C9.92440254,10.8526815 10,11.0193481 10,11.25 C10,11.4806519 9.92440254,11.6473185 9.77320761,11.75 L6.23108031,11.75 C6.07702677,11.6575114 6,11.4898173 6,11.2469177 C6,11.0040181 6.07702677,10.8383789 6.23108031,10.75 L7,10.75 Z M8,15 C4.13400675,15 1,11.8659932 1,8 C1,4.13400675 4.13400675,1 8,1 C11.8659932,1 15,4.13400675 15,8 C15,11.8659932 11.8659932,15 8,15 Z M8,13 C10.7614237,13 13,10.7614237 13,8 C13,5.23857625 10.7614237,3 8,3 C5.23857625,3 3,5.23857625 3,8 C3,10.7614237 5.23857625,13 8,13 Z M8,5.75 C7.44771525,5.75 7,5.30228475 7,4.75 C7,4.19771525 7.44771525,3.75 8,3.75 C8.55228475,3.75 9,4.19771525 9,4.75 C9,5.30228475 8.55228475,5.75 8,5.75 Z"/>
</svg>
