<svg xmlns="http://www.w3.org/2000/svg" xmlns:xlink="http://www.w3.org/1999/xlink" width="16" height="16" viewBox="0 0 16 16">
  
    <path id="issue-created-a" d="M10.7362734,11.5906836 L9.24663753,10.1010477 C8.85611324,9.71052342 8.85611324,9.07735844 9.24663753,8.68683415 C9.63716182,8.29630986 10.2703268,8.29630986 10.6608511,8.68683415 L11.5143788,9.54036182 L13.3002745,7.75446609 C13.6907988,7.3639418 14.3239638,7.3639418 14.7144881,7.75446609 C15.1050124,8.14499038 15.1050124,8.77815536 14.7144881,9.16867965 L12.2179655,11.6652022 C11.8274412,12.0557265 11.1942763,12.0557265 10.803752,11.6652022 C10.7797887,11.6412389 10.7572958,11.616362 10.7362734,11.5906836 Z M13,6.12601749 C12.6803801,6.043753 12.3452996,6 12,6 C11.6547004,6 11.3196199,6.043753 11,6.12601749 L11,5 C11,4.44771525 10.5522847,4 10,4 L6,4 C5.44771525,4 5,4.44771525 5,5 L5,11 C5,11.5522847 5.44771525,12 6,12 L8.53512878,12 C9.05300481,12.8952532 9.90789038,13.5711639 10.9263138,13.8542603 C10.6345812,13.9488716 10.3232615,14 10,14 L6,14 C4.34314575,14 3,12.6568542 3,11 L3,5 C3,3.34314575 4.34314575,2 6,2 L10,2 C11.6568542,2 13,3.34314575 13,5 L13,6.12601749 Z"/>
  
  
</svg>
