<svg width="16" height="16" viewBox="0 0 16 16" xmlns="http://www.w3.org/2000/svg" xmlns:xlink="http://www.w3.org/1999/xlink"><title>icn/issue-external</title><path d="M11 5.1a5.023 5.023 0 0 0-2 0V5a1 1 0 0 0-1-1H5a1 1 0 0 0-1 1v6a1 1 0 0 0 1 1h.416A5.018 5.018 0 0 0 7 14H5a3 3 0 0 1-3-3V5a3 3 0 0 1 3-3h3a3 3 0 0 1 3 3v.1zM7.207 8.966l-.565-.875a.252.252 0 0 1 .015-.294l.402-.499a.25.25 0 0 1 .284-.076l.932.359a2.97 2.97 0 0 1 .848-.42l.32-.988A.25.25 0 0 1 9.681 6h.638a.25.25 0 0 1 .238.173l.32.989c.306.094.592.237.847.419l.933-.36a.25.25 0 0 1 .284.077l.401.499a.252.252 0 0 1 .016.294l-.565.875c.112.297.179.617.191.95l.895.54c.092.057.139.167.114.273l-.143.624a.25.25 0 0 1-.222.194l-1.109.098c-.143.225-.314.43-.51.608l.165 1.18a.252.252 0 0 1-.138.26l-.574.282a.25.25 0 0 1-.29-.052l-.87-.904a3.007 3.007 0 0 1-.605 0l-.87.904a.25.25 0 0 1-.29.052l-.573-.282a.252.252 0 0 1-.138-.26l.165-1.18a3.013 3.013 0 0 1-.51-.608l-1.11-.098a.25.25 0 0 1-.221-.194l-.144-.624a.252.252 0 0 1 .115-.272l.894-.54c.013-.334.08-.654.192-.95zM10 11.003c.55 0 .995-.448.995-1 0-.553-.445-1.001-.995-1.001a.998.998 0 0 0-.996 1c0 .553.446 1 .996 1z" id="a"/></svg>