<svg width="16" height="16" viewBox="0 0 16 16" xmlns="http://www.w3.org/2000/svg" xmlns:xlink="http://www.w3.org/1999/xlink"><title>icn/issues</title><path d="M10.892 3.072l1.048.185a3 3 0 0 1 2.433 3.476l-.868 4.924a3 3 0 0 1-3.12 2.474A3.98 3.98 0 0 0 11 12.03a.999.999 0 0 0 .535-.72l.869-4.924a1 1 0 0 0-.811-1.158L11 5.122V4c0-.32-.037-.63-.108-.928zM4 1h3a3 3 0 0 1 3 3v8a3 3 0 0 1-3 3H4a3 3 0 0 1-3-3V4a3 3 0 0 1 3-3zm0 2a1 1 0 0 0-1 1v8a1 1 0 0 0 1 1h3a1 1 0 0 0 1-1V4a1 1 0 0 0-1-1H4z" id="a"/></svg>