<svg width="16" height="16" viewBox="0 0 16 16" xmlns="http://www.w3.org/2000/svg" xmlns:xlink="http://www.w3.org/1999/xlink"><title>icn/issue-block</title><path d="M11 4.083a6.04 6.04 0 0 0-2 0V4a1 1 0 0 0-1-1H4a1 1 0 0 0-1 1v6a1 1 0 0 0 1 1h.083a5.96 5.96 0 0 0 .72 2H4a3 3 0 0 1-3-3V4a3 3 0 0 1 3-3h4a3 3 0 0 1 3 3v.083zM6.682 5c-.426.283-.814.62-1.154 1H4.5a.5.5 0 0 1 0-1h2.182zM10 15a5 5 0 1 1 0-10 5 5 0 0 1 0 10zm-1.293-2.292a3 3 0 0 0 4.001-4.001l-4.001 4zm-1.415-1.415l4.001-4a3 3 0 0 0-4.001 4.001z" id="a"/></svg>