<svg width="16" height="16" viewBox="0 0 16 16" xmlns="http://www.w3.org/2000/svg" xmlns:xlink="http://www.w3.org/1999/xlink"><title>icn/issue-child</title><path d="M11 8H5v1h.7A1.3 1.3 0 0 1 7 10.3v2.4A1.3 1.3 0 0 1 5.7 14H3.3A1.3 1.3 0 0 1 2 12.7v-2.4a1.3 1.3 0 0 1 1-1.265V7a1 1 0 0 1 1-1h3V5H4.5a.5.5 0 0 1-.5-.5v-2a.5.5 0 0 1 .5-.5h7a.5.5 0 0 1 .5.5v2a.5.5 0 0 1-.5.5H9v1h3a1 1 0 0 1 1 1v2.035a1.3 1.3 0 0 1 1 1.265v2.4a1.3 1.3 0 0 1-1.3 1.3h-2.4A1.3 1.3 0 0 1 9 12.7v-2.4A1.3 1.3 0 0 1 10.3 9h.7V8zm0 3v1h1v-1h-1zm-7 0v1h1v-1H4z" id="a"/></svg>