<svg width="16" height="16" viewBox="0 0 16 16" xmlns="http://www.w3.org/2000/svg" xmlns:xlink="http://www.w3.org/1999/xlink"><title>icn/label-o</title><path d="M8.798 2.067l4.225.017c.55.003.997.45.999 1l.017 4.225a.992.992 0 0 1-.29.705l-5.193 5.194a2.693 2.693 0 0 1-3.808-.01l-1.839-1.84a2.693 2.693 0 0 1-.01-3.807l5.193-5.193a.992.992 0 0 1 .706-.29zm.416 1.997L4.313 8.965a.698.698 0 0 0 .003.987l1.838 1.839a.698.698 0 0 0 .987.002l4.902-4.901-.012-2.817-2.817-.011zm-.463 3.291a.997.997 0 0 1-.004-1.41.997.997 0 0 1 1.41.004.997.997 0 0 1 .004 1.41.997.997 0 0 1-1.41-.004z" id="a"/></svg>