<svg width="16" height="16" viewBox="0 0 16 16" xmlns="http://www.w3.org/2000/svg"><path d="M8.803 3.052l2.637-1.514a1 1 0 0 1 1.365.37l2.105 3.668a1 1 0 0 1 .099.757l-1.705 6.363a3 3 0 0 1-3.674 2.121l-.632-.17c.45-.509.773-1.134.917-1.824l.232.062a1 1 0 0 0 1.225-.707l1.598-5.964-1.402-2.443-1.61.924a2 2 0 0 0-.52-.985l-.635-.658zM1.284 4.404L4.301 1.31a1 1 0 0 1 1.436.004l2.982 3.09A1 1 0 0 1 9 5.099V12a3 3 0 0 1-3 3H4a3 3 0 0 1-3-3V5.102a1 1 0 0 1 .284-.698zM3 5.509V12a1 1 0 0 0 1 1h2a1 1 0 0 0 1-1V5.503L5.013 3.445 3 5.509z" fill="#000" fill-rule="nonzero"/></svg>