<svg width="16" height="16" viewBox="0 0 16 16" xmlns="http://www.w3.org/2000/svg" xmlns:xlink="http://www.w3.org/1999/xlink"><title>icn/license</title><path d="M7.294 9.975L4.502 14.81a.3.3 0 0 1-.51.016l-.952-1.432a.1.1 0 0 0-.078-.044l-1.679-.094a.3.3 0 0 1-.243-.45l2.767-4.792a4.994 4.994 0 0 0 3.487 1.961zm4.745-2.327l2.978 5.158a.3.3 0 0 1-.243.45l-1.679.094a.1.1 0 0 0-.077.044l-.954 1.432a.3.3 0 0 1-.51-.016L8.729 9.913a5.004 5.004 0 0 0 3.31-2.265zM7.796 9a4 4 0 1 1 0-8 4 4 0 0 1 0 8zm0-2a2 2 0 1 0 0-4 2 2 0 0 0 0 4zm0-1a1 1 0 1 1 0-2 1 1 0 0 1 0 2z" id="a"/></svg>