<svg width="16" height="16" viewBox="0 0 16 16" xmlns="http://www.w3.org/2000/svg" xmlns:xlink="http://www.w3.org/1999/xlink"><title>icn/link</title><path d="M8.725 7.275c-.8-.8-2.099-.8-2.9 0L3.651 9.45a2.05 2.05 0 1 0 2.9 2.9l.3-.302c.83.325 1.727.425 2.598.302L8 13.799A4.1 4.1 0 0 1 2.201 8l2.175-2.175a4.1 4.1 0 0 1 5.799 0 1.025 1.025 0 0 1-1.45 1.45zm-1.45 1.45c.8.8 2.099.8 2.9 0l2.174-2.175a2.05 2.05 0 0 0-2.9-2.9l-.3.302A5.144 5.144 0 0 0 6.55 3.65L8 2.201A4.1 4.1 0 0 1 13.799 8l-2.175 2.175a4.1 4.1 0 0 1-5.799 0 1.025 1.025 0 1 1 1.45-1.45z" id="a"/></svg>