<svg width="16" height="16" viewBox="0 0 16 16" xmlns="http://www.w3.org/2000/svg" xmlns:xlink="http://www.w3.org/1999/xlink"><title>icn/list-numbered</title><path d="M6.8 2h6.4c.442 0 .8.448.8 1s-.358 1-.8 1H6.8C6.358 4 6 3.552 6 3s.358-1 .8-1zm0 5h6.4c.442 0 .8.448.8 1s-.358 1-.8 1H6.8C6.358 9 6 8.552 6 8s.358-1 .8-1zm0 5h6.4c.442 0 .8.448.8 1s-.358 1-.8 1H6.8c-.442 0-.8-.448-.8-1s.358-1 .8-1zM2.156 5v-.828h.816V2.204h-.72v-.636c.432-.084.708-.192.996-.372h.756v2.976h.684V5H2.156zm-.18 5v-.588c.9-.828 1.596-1.464 1.596-1.98 0-.342-.192-.504-.468-.504-.252 0-.444.18-.624.36l-.552-.552c.396-.42.756-.612 1.32-.612.768 0 1.308.492 1.308 1.248 0 .612-.576 1.284-1.092 1.812.192-.024.468-.048.636-.048h.636V10h-2.76zm1.26 5.072c-.618 0-1.068-.204-1.356-.54l.468-.648c.234.216.51.36.78.36.336 0 .552-.12.552-.36 0-.288-.15-.456-.948-.456v-.72c.636 0 .828-.168.828-.432 0-.228-.138-.348-.396-.348-.252 0-.432.108-.672.312l-.516-.624c.372-.312.768-.492 1.236-.492.84 0 1.38.384 1.38 1.074 0 .366-.204.642-.612.822v.024c.432.132.732.432.732.912 0 .72-.684 1.116-1.476 1.116z" id="a"/></svg>