<svg width="16" height="16" viewBox="0 0 16 16" xmlns="http://www.w3.org/2000/svg" xmlns:xlink="http://www.w3.org/1999/xlink"><title>icn/list-bulleted</title><path d="M3 4a1 1 0 1 1 0-2 1 1 0 0 1 0 2zm0 5a1 1 0 1 1 0-2 1 1 0 0 1 0 2zm0 5a1 1 0 1 1 0-2 1 1 0 0 1 0 2zM5.818 2h7.364c.452 0 .818.448.818 1s-.366 1-.818 1H5.818C5.366 4 5 3.552 5 3s.366-1 .818-1zm0 5h7.364c.452 0 .818.448.818 1s-.366 1-.818 1H5.818C5.366 9 5 8.552 5 8s.366-1 .818-1zm0 5h7.364c.452 0 .818.448.818 1s-.366 1-.818 1H5.818C5.366 14 5 13.552 5 13s.366-1 .818-1z" id="a"/></svg>