<!-- Licensed to the Apache Software Foundation (ASF) under one or more
contributor license agreements.  See the NOTICE file distributed with
this work for additional information regarding copyright ownership.
The ASF licenses this file to You under the Apache License, Version 2.0
(the "License"); you may not use this file except in compliance with
the License.  You may obtain a copy of the License at

     http://www.apache.org/licenses/LICENSE-2.0

Unless required by applicable law or agreed to in writing, software
distributed under the License is distributed on an "AS IS" BASIS,
WITHOUT WARRANTIES OR CONDITIONS OF ANY KIND, either express or implied.
See the License for the specific language governing permissions and
limitations under the License. -->

<svg width="16" height="16" viewBox="0 0 16 16" xmlns="http://www.w3.org/2000/svg" xmlns:xlink="http://www.w3.org/1999/xlink"><title>icn/list-bulleted</title><path d="M3 4a1 1 0 1 1 0-2 1 1 0 0 1 0 2zm0 5a1 1 0 1 1 0-2 1 1 0 0 1 0 2zm0 5a1 1 0 1 1 0-2 1 1 0 0 1 0 2zM5.818 2h7.364c.452 0 .818.448.818 1s-.366 1-.818 1H5.818C5.366 4 5 3.552 5 3s.366-1 .818-1zm0 5h7.364c.452 0 .818.448.818 1s-.366 1-.818 1H5.818C5.366 9 5 8.552 5 8s.366-1 .818-1zm0 5h7.364c.452 0 .818.448.818 1s-.366 1-.818 1H5.818C5.366 14 5 13.552 5 13s.366-1 .818-1z" id="a"/></svg>