<svg xmlns="http://www.w3.org/2000/svg" xmlns:xlink="http://www.w3.org/1999/xlink" width="16" height="16" viewBox="0 0 16 16">
  
    <path id="live-preview-a" d="M12,4 L4.5,4 C3.67157288,4 3,4.44771525 3,5 L3,11 C3,11.5522847 3.67157288,12 4.5,12 L12,12 C12.5522847,12 13,11.5522847 13,11 L13,5 C13,4.44771525 12.5522847,4 12,4 Z M4,2 L12,2 C13.6568542,2 15,3.34314575 15,5 L15,11 C15,12.6568542 13.6568542,14 12,14 L4,14 C2.34314575,14 1,12.6568542 1,11 L1,5 C1,3.34314575 2.34314575,2 4,2 Z M7.0041631,10.4485188 C6.84857127,10.5488762 6.64481943,10.4980289 6.54907062,10.3349481 C6.51698707,10.280303 6.5,10.2173982 6.5,10.153235 L6.5,5.84671631 C6.5,5.65523018 6.64810176,5.5 6.83079453,5.5 C6.8920113,5.5 6.95202733,5.51780469 7.0041631,5.55143248 L10.3425276,7.70469182 C10.4981194,7.80504921 10.5466317,8.01860802 10.4508829,8.18168878 C10.4237434,8.22791315 10.3866292,8.26681372 10.3425276,8.29525948 L7.0041631,10.4485188 Z"/>
  
  
</svg>
