<svg width="16" height="16" viewBox="0 0 16 16" xmlns="http://www.w3.org/2000/svg" xmlns:xlink="http://www.w3.org/1999/xlink"><title>icn/location-dot</title><path d="M6.518 12.067a2 2 0 0 0 2.964 0c2.038.19 3.518.76 3.518 1.433 0 .828-2.239 1.5-5 1.5s-5-.672-5-1.5c0-.674 1.48-1.244 3.518-1.433zm2.283-.744a1 1 0 0 1-1.601 0C5.067 8.473 4 6.383 4 5.05 4 2.813 5.79 1 8 1s4 1.813 4 4.05c0 1.333-1.066 3.424-3.2 6.273zM10 5.05C10 3.912 9.1 3 8 3s-2 .912-2 2.05c0 .644.656 2.03 2 3.966 1.344-1.937 2-3.322 2-3.967zM8 6a1 1 0 1 1 0-2 1 1 0 0 1 0 2z" id="a"/></svg>