<svg width="16" height="16" viewBox="0 0 16 16" xmlns="http://www.w3.org/2000/svg" xmlns:xlink="http://www.w3.org/1999/xlink"><title>icn/log</title><path d="M5 1h6a3 3 0 0 1 3 3v8a3 3 0 0 1-3 3H5a3 3 0 0 1-3-3V4a3 3 0 0 1 3-3zm0 2a1 1 0 0 0-1 1v8a1 1 0 0 0 1 1h6a1 1 0 0 0 1-1V4a1 1 0 0 0-1-1H5zm1 3a1 1 0 1 1 0-2 1 1 0 0 1 0 2zm0 3a1 1 0 1 1 0-2 1 1 0 0 1 0 2zm3-5h1a1 1 0 0 1 0 2H9a1 1 0 1 1 0-2zm0 3h1a1 1 0 0 1 0 2H9a1 1 0 1 1 0-2zm-3 5a1 1 0 1 1 0-2 1 1 0 0 1 0 2zm3-2h1a1 1 0 0 1 0 2H9a1 1 0 0 1 0-2z" id="a"/></svg>