<svg width="16" height="16" viewBox="0 0 16 16" xmlns="http://www.w3.org/2000/svg" xmlns:xlink="http://www.w3.org/1999/xlink"><title>icn/media</title><path d="M8.235 2.994l.846-.846a.5.5 0 0 1 .707 0l.002.001a.5.5 0 0 1 0 .707l-.553.553c.199.158.368.352.495.573H13a2 2 0 0 1 2 2V12a2 2 0 0 1-2 2H3a2 2 0 0 1-2-2V5.982a2 2 0 0 1 2-2h3.268c.133-.23.31-.431.52-.592l-.536-.536a.5.5 0 0 1 .707-.707l.843.843a2.02 2.02 0 0 1 .433.004zM3.5 5.986a.5.5 0 0 0-.5.5v5.01a.5.5 0 0 0 .5.5h7a.5.5 0 0 0 .5-.5v-5.01a.5.5 0 0 0-.5-.5h-7zm9 3.005a.5.5 0 0 0-.5.5v.002a.5.5 0 0 0 .5.5h1a.5.5 0 0 0 .5-.5V9.49a.5.5 0 0 0-.5-.5h-1zm0-2.003a.5.5 0 0 0-.5.5v.001a.5.5 0 0 0 .5.5h1a.5.5 0 0 0 .5-.5v-.001a.5.5 0 0 0-.5-.5h-1z" id="a"/></svg>