<svg width="16" height="16" viewBox="0 0 16 16" xmlns="http://www.w3.org/2000/svg"><title>nature</title><path d="M8 1c1.227 0 2.066.704 2.538 1.716 1.079-.264 2.147-.053 2.916.896.78.963.753 2.07.249 3.082.891.689 1.397 1.67 1.12 2.873-.276 1.194-1.149 1.853-2.239 2.086.017 1.113-.43 2.109-1.529 2.645-1.112.543-2.183.269-3.055-.448-.872.717-1.943.99-3.055.448-1.1-.536-1.546-1.532-1.529-2.645-1.09-.233-1.963-.892-2.238-2.086-.278-1.204.228-2.184 1.12-2.873-.505-1.012-.532-2.119.248-3.082.769-.95 1.837-1.16 2.916-.896C5.934 1.704 6.772 1 8 1zm-.81 5.171c-.041.018-.08.037-.12.058a3.502 3.502 0 0 0-.786-.877c-.859-.695-1.836-.91-2.184-.481-.347.43.067 1.34.925 2.036.343.277.705.478 1.038.593-.01.037-.018.076-.026.115a3.492 3.492 0 0 0-1.187.078c-1.076.249-1.848.886-1.724 1.424.125.539 1.098.773 2.174.525a3.496 3.496 0 0 0 1.096-.447c.027.036.054.07.083.104-.25.243-.489.575-.68.966-.484.992-.474 1.993.023 2.235.496.243 1.29-.366 1.775-1.359.193-.395.308-.792.344-1.142a2.037 2.037 0 0 0 .118 0c.036.35.15.747.344 1.142.484.993 1.279 1.602 1.775 1.36.497-.243.507-1.244.022-2.236a3.499 3.499 0 0 0-.68-.966 2.01 2.01 0 0 0 .084-.104c.293.19.67.349 1.096.447 1.076.248 2.05.014 2.174-.525.124-.538-.648-1.175-1.724-1.424a3.492 3.492 0 0 0-1.187-.078 1.987 1.987 0 0 0-.026-.115 3.486 3.486 0 0 0 1.038-.593c.858-.695 1.272-1.607.925-2.036-.348-.43-1.325-.214-2.184.481-.337.273-.605.58-.786.877a1.991 1.991 0 0 0-.12-.058C8.93 5.842 9 5.437 9 5c0-1.105-.448-2-1-2s-1 .895-1 2c0 .437.07.842.19 1.171zM8 9a1 1 0 1 1 0-2 1 1 0 0 1 0 2z" fill="#000" fill-rule="nonzero"/></svg>