<svg width="16" height="16" viewBox="0 0 16 16" xmlns="http://www.w3.org/2000/svg" xmlns:xlink="http://www.w3.org/1999/xlink"><title>icn/notifications</title><path d="M9.73 13c-.354.598-1.016 1-1.774 1s-1.42-.402-1.775-1H4.05c-.23 0-.46-.038-.677-.112-1.068-.366-1.63-1.507-1.256-2.55.362-1.009.602-1.788.719-2.338.28-1.318.888-4.402 4.1-4.924A1.012 1.012 0 0 1 7.955 2a1.012 1.012 0 0 1 1.02 1.087c3.101.54 3.77 3.45 4.1 4.913.131.579.388 1.327.772 2.244.1.24.152.497.152.756 0 1.105-.917 2-2.048 2H9.73zm1.346-4.57C10.518 5.956 9.84 5 7.916 5c-1.352 0-2.052.52-2.547 1.61-.227.499-.34.91-.529 1.798-.139.652-.402 1.507-.791 2.592h7.903c-.424-1.014-.716-1.863-.876-2.57z" id="a"/></svg>