<svg width="16" height="16" viewBox="0 0 16 16" xmlns="http://www.w3.org/2000/svg" xmlns:xlink="http://www.w3.org/1999/xlink"><title>icn/notifications-off</title><path d="M5.828 13l2-2h4.124c-.424-1.014-.716-1.863-.876-2.57a17.317 17.317 0 0 0-.132-.546l1.633-1.633c.25.648.393 1.275.5 1.749.13.579.387 1.327.771 2.244.1.24.152.497.152.756 0 1.105-.917 2-2.048 2H9.73c-.354.598-1.016 1-1.774 1s-1.42-.402-1.775-1h-.353zm-3.821-1.835a1.95 1.95 0 0 1 .109-.826c.362-1.01.602-1.79.719-2.339.28-1.318.888-4.402 4.1-4.924A1.012 1.012 0 0 1 7.955 2a1.012 1.012 0 0 1 1.02 1.087c.316.055.606.135.874.235L8.166 5.006A5.262 5.262 0 0 0 7.916 5c-1.352 0-2.052.52-2.547 1.61-.218.48-.331.88-.508 1.7l-2.854 2.855zm11.65-8.822a1 1 0 0 1 0 1.414l-9.9 9.9a1 1 0 0 1-1.414-1.414l9.9-9.9a1 1 0 0 1 1.414 0z" id="a"/></svg>