<svg width="16" height="16" viewBox="0 0 16 16" xmlns="http://www.w3.org/2000/svg" xmlns:xlink="http://www.w3.org/1999/xlink"><title>icn/overview</title><path d="M3.5 2h2A1.5 1.5 0 0 1 7 3.5v2A1.5 1.5 0 0 1 5.5 7h-2A1.5 1.5 0 0 1 2 5.5v-2A1.5 1.5 0 0 1 3.5 2zM4 4v1h1V4H4zm-.5 5h2A1.5 1.5 0 0 1 7 10.5v2A1.5 1.5 0 0 1 5.5 14h-2A1.5 1.5 0 0 1 2 12.5v-2A1.5 1.5 0 0 1 3.5 9zm.5 2v1h1v-1H4zm6.5-9h2A1.5 1.5 0 0 1 14 3.5v2A1.5 1.5 0 0 1 12.5 7h-2A1.5 1.5 0 0 1 9 5.5v-2A1.5 1.5 0 0 1 10.5 2zm.5 2v1h1V4h-1zm-.5 5h2a1.5 1.5 0 0 1 1.5 1.5v2a1.5 1.5 0 0 1-1.5 1.5h-2A1.5 1.5 0 0 1 9 12.5v-2A1.5 1.5 0 0 1 10.5 9zm.5 2v1h1v-1h-1z" id="a"/></svg>