<!-- Licensed to the Apache Software Foundation (ASF) under one or more
contributor license agreements.  See the NOTICE file distributed with
this work for additional information regarding copyright ownership.
The ASF licenses this file to You under the Apache License, Version 2.0
(the "License"); you may not use this file except in compliance with
the License.  You may obtain a copy of the License at

     http://www.apache.org/licenses/LICENSE-2.0

Unless required by applicable law or agreed to in writing, software
distributed under the License is distributed on an "AS IS" BASIS,
WITHOUT WARRANTIES OR CONDITIONS OF ANY KIND, either express or implied.
See the License for the specific language governing permissions and
limitations under the License. -->

<svg xmlns="http://www.w3.org/2000/svg" width="16" height="16" viewBox="0 0 16 16"><path d="M9 4v2h2.382l-1-2H9zM7 4H5.618l-1 2H7V4zm6.885 2.535A.994.994 0 0 1 14 7.05V12a2 2 0 0 1-2 2H4a2 2 0 0 1-2-2V7.05a.984.984 0 0 1 .115-.515l1.714-3.43A2 2 0 0 1 5.618 2h4.764a2 2 0 0 1 1.789 1.106l1.714 3.429zM4 8v4h8V8H4z"/></svg>