<svg width="16" height="16" viewBox="0 0 16 16" xmlns="http://www.w3.org/2000/svg" xmlns:xlink="http://www.w3.org/1999/xlink"><title>icn/pipeline</title><path d="M8.969 7.25a2 2 0 1 1-1.938 0A1.002 1.002 0 0 1 7 7V5.084a.2.2 0 0 1 .06-.142l.877-.872a.1.1 0 0 1 .14 0h.001l.864.872a.2.2 0 0 1 .058.14v1.92c0 .085-.01.168-.031.248zM8 15A7 7 0 1 1 8 1a7 7 0 0 1 0 14zm0-2A5 5 0 1 0 8 3a5 5 0 0 0 0 10zm0-3a1 1 0 1 0 0-2 1 1 0 0 0 0 2zm-3.5 0a.5.5 0 1 1 0-1 .5.5 0 0 1 0 1zm1-3a.5.5 0 1 1 0-1 .5.5 0 0 1 0 1zm6 3a.5.5 0 1 1 0-1 .5.5 0 0 1 0 1zm-1-3a.5.5 0 1 1 0-1 .5.5 0 0 1 0 1z" id="a"/></svg>