<svg width="16" height="16" viewBox="0 0 16 16" xmlns="http://www.w3.org/2000/svg" xmlns:xlink="http://www.w3.org/1999/xlink"><title>icn/planning</title><path d="M10 10h1.5a.5.5 0 1 1 0 1h-2a.5.5 0 0 1-.5-.5v-2a.5.5 0 0 1 1 0V10zm3-5.197A5.972 5.972 0 0 0 10 4a5.985 5.985 0 0 0-4.472 2H3v4a1 1 0 0 0 1 1h.083a5.96 5.96 0 0 0 .72 2H4a3 3 0 0 1-3-3V4a1 1 0 0 1 1-1h1V2a1 1 0 1 1 2 0v1h4V2a1 1 0 0 1 2 0v1h1a1 1 0 0 1 1 1v.803zM10 15a5 5 0 1 1 0-10 5 5 0 0 1 0 10zm0-2a3 3 0 1 0 0-6 3 3 0 0 0 0 6z" id="a"/></svg>