<svg width="16" height="16" viewBox="0 0 16 16" xmlns="http://www.w3.org/2000/svg" xmlns:xlink="http://www.w3.org/1999/xlink"><title>icn/podcast</title><path d="M8.588 8.185l1.173 5.862a1 1 0 0 1-.98 1.196H7.22a1 1 0 0 1-.98-1.196l1.172-5.862a3.014 3.014 0 0 0 1.176 0zm-3.416-4.77a1 1 0 0 1 1.414 1.413 2 2 0 0 0 0 2.829A1 1 0 0 1 5.172 9.07a4 4 0 0 1 0-5.657zm5.656 5.656a1 1 0 1 1-1.414-1.414 2 2 0 0 0 0-2.829 1 1 0 0 1 1.414-1.414 4 4 0 0 1 0 5.657zM3.05 1.293a1 1 0 1 1 1.414 1.414 5 5 0 0 0 0 7.071 1 1 0 0 1-1.414 1.414 7 7 0 0 1 0-9.9zm9.9 9.9a1 1 0 0 1-1.414-1.415 5 5 0 0 0 0-7.07 1 1 0 1 1 1.414-1.415 7 7 0 0 1 0 9.9zM8 7.242a1 1 0 1 1 0-2 1 1 0 0 1 0 2z" id="a"/></svg>