<svg width="16" height="16" viewBox="0 0 16 16" xmlns="http://www.w3.org/2000/svg" xmlns:xlink="http://www.w3.org/1999/xlink"><title>icn/push-rules</title><path d="M6.268 9a2 2 0 0 1 3.464 0H11a1 1 0 0 1 0 2H9.732a2 2 0 0 1-3.464 0H5a1 1 0 0 1 0-2h1.268zM7 3H5a1 1 0 0 0-1 1v8a1 1 0 0 0 1 1h6a1 1 0 0 0 1-1V4a1 1 0 0 0-1-1v3.191a.5.5 0 0 1-.724.447l-1.052-.526a.5.5 0 0 0-.448 0l-1.052.526A.5.5 0 0 1 7 6.191V3zM5 1h6a3 3 0 0 1 3 3v8a3 3 0 0 1-3 3H5a3 3 0 0 1-3-3V4a3 3 0 0 1 3-3zm3 10a1 1 0 1 0 0-2 1 1 0 0 0 0 2z" id="a"/></svg>