<svg width="16" height="16" viewBox="0 0 16 16" xmlns="http://www.w3.org/2000/svg" xmlns:xlink="http://www.w3.org/1999/xlink"><title>icn/question</title><path d="M8 15A7 7 0 1 1 8 1a7 7 0 0 1 0 14zm-.778-5.151h1.955c.004-.178.02-.341.044-.49.025-.147.064-.284.116-.41.053-.125.123-.244.212-.358.09-.114.2-.23.332-.349.228-.21.442-.409.642-.598a4.4 4.4 0 0 0 .523-.584c.148-.201.265-.417.349-.65.084-.232.126-.497.126-.793 0-.442-.072-.832-.218-1.169a2.23 2.23 0 0 0-.633-.847 2.795 2.795 0 0 0-1.008-.517 4.761 4.761 0 0 0-1.34-.174c-.45 0-.872.055-1.264.164-.392.11-.733.282-1.022.516-.29.235-.52.535-.69.9-.172.364-.26.801-.264 1.312h2.31a1.5 1.5 0 0 1 .09-.506 1.04 1.04 0 0 1 .208-.345.806.806 0 0 1 .29-.199.92.92 0 0 1 .342-.064c.296 0 .519.083.667.249.148.166.222.427.222.783 0 .287-.092.551-.277.793a4.81 4.81 0 0 1-.755.758c-.187.16-.342.327-.465.503a2.356 2.356 0 0 0-.294.574 3.2 3.2 0 0 0-.154.68c-.03.246-.044.52-.044.82zm-.28 2.078c0 .164.03.316.092.458.061.141.149.263.263.365.114.103.248.184.403.243.155.06.328.089.52.089.191 0 .364-.03.52-.089.154-.06.289-.14.403-.243a1.05 1.05 0 0 0 .263-.365c.061-.142.092-.294.092-.458 0-.164-.03-.317-.092-.458a1.05 1.05 0 0 0-.263-.366 1.278 1.278 0 0 0-.404-.243 1.445 1.445 0 0 0-.52-.089c-.19 0-.364.03-.519.09-.155.059-.29.14-.403.242a1.05 1.05 0 0 0-.263.366 1.135 1.135 0 0 0-.093.458z" id="a"/></svg>