<svg width="16" height="16" viewBox="0 0 16 16" xmlns="http://www.w3.org/2000/svg" xmlns:xlink="http://www.w3.org/1999/xlink"><title>icn/question-o</title><path d="M8 15A7 7 0 1 1 8 1a7 7 0 0 1 0 14zm0-2A5 5 0 1 0 8 3a5 5 0 0 0 0 10zm-.754-3.476c0-.236.011-.451.035-.645.023-.193.063-.371.12-.534a1.85 1.85 0 0 1 .231-.451c.097-.138.219-.27.366-.395a3.78 3.78 0 0 0 .593-.596c.145-.19.218-.398.218-.623 0-.28-.059-.485-.175-.615-.116-.13-.29-.196-.524-.196a.723.723 0 0 0-.268.05.633.633 0 0 0-.228.157.817.817 0 0 0-.164.27 1.178 1.178 0 0 0-.07.398H5.564c.004-.4.073-.745.207-1.031.135-.286.315-.522.543-.706.227-.185.495-.32.803-.406.308-.086.639-.129.993-.129.39 0 .742.046 1.053.137.312.092.576.227.792.406.217.179.383.4.497.666.115.265.172.57.172.918a1.82 1.82 0 0 1-.373 1.134c-.117.157-.254.31-.411.459-.158.148-.326.305-.505.47-.104.093-.19.184-.26.274-.07.09-.126.183-.167.282a1.467 1.467 0 0 0-.091.322c-.02.116-.032.244-.035.384H7.246zm-.22 1.633c0-.13.024-.25.072-.36a.826.826 0 0 1 .207-.287c.09-.081.195-.145.317-.191.121-.047.257-.07.408-.07.15 0 .286.023.408.07.122.046.227.11.317.19.09.081.158.177.207.288a.891.891 0 0 1 .072.36.891.891 0 0 1-.072.36.826.826 0 0 1-.207.287c-.09.08-.195.144-.317.19-.122.047-.258.07-.408.07-.15 0-.287-.023-.408-.07a1.004 1.004 0 0 1-.317-.19.826.826 0 0 1-.207-.287.891.891 0 0 1-.073-.36z" id="a"/></svg>