<svg width="16px" height="16px" viewBox="0 0 16 16" version="1.1" xmlns="http://www.w3.org/2000/svg">
    <g fill-rule="evenodd">
        <path d="M2.65818925,3.83333685 C2.66101172,3.83330872 2.66383755,3.83329462 2.66666667,3.83329462 L3.5,3.83329462 C3.50002472,3.37307132 3.87311129,3 4.33333333,3 L7.66666667,3 C8.12689106,3 8.49997908,3.37307512 8.5,3.83329462 L9.33333333,3.83329462 C9.33616245,3.83329462 9.33898828,3.83330872 9.34181075,3.83333685 L10.1666631,3.83333685 C10.6269024,3.83333685 11,4.20643447 11,4.6666737 C11,5.12691177 10.6269043,5.50000866 10.1666667,5.50001056 L10.1666667,10.4999894 C10.1666667,11.8807071 9.04737854,13 7.66666667,13 L4.33333333,13 C2.95262146,13 1.83333333,11.8807071 1.83333333,10.4999894 L1.83333333,5.50000804 C1.37309572,5.50000866 1,5.12691177 1,4.6666737 C1,4.20643447 1.37309762,3.83333685 1.83333685,3.83333685 L2.65818925,3.83333685 Z M3.5,5.49996833 L3.5,10.4999894 C3.5,10.9602287 3.87309604,11.3333263 4.33333333,11.3333263 L7.66666667,11.3333263 C8.12690396,11.3333263 8.5,10.9602287 8.5,10.4999894 L8.5,5.49996833 L3.5,5.49996833 Z M4.75,6.33334741 C4.98011865,6.33334741 5.16666667,6.51989543 5.16666667,6.75001408 L5.16666667,10.083365 C5.16666667,10.3134837 4.98011865,10.5000317 4.75,10.5000317 C4.51988135,10.5000317 4.33333333,10.3134837 4.33333333,10.083365 L4.33333333,6.75001408 C4.33333333,6.51989543 4.51988135,6.33334741 4.75,6.33334741 Z M7.25,6.33334741 C7.48011865,6.33334741 7.66666667,6.51989543 7.66666667,6.75001408 L7.66666667,10.083365 C7.66666667,10.3134837 7.48011865,10.5000317 7.25,10.5000317 C7.01988135,10.5000317 6.83333333,10.3134837 6.83333333,10.083365 L6.83333333,6.75001408 C6.83333333,6.51989543 7.01988135,6.33334741 7.25,6.33334741 Z M13,4 L14,4 C14.5522847,4 15,4.44771525 15,5 C15,5.55228475 14.5522847,6 14,6 L13,6 C12.4477153,6 12,5.55228475 12,5 C12,4.44771525 12.4477153,4 13,4 Z M13,7 L14,7 C14.5522847,7 15,7.44771525 15,8 C15,8.55228475 14.5522847,9 14,9 L13,9 C12.4477153,9 12,8.55228475 12,8 C12,7.44771525 12.4477153,7 13,7 Z M13,10 L14,10 C14.5522847,10 15,10.4477153 15,11 C15,11.5522847 14.5522847,12 14,12 L13,12 C12.4477153,12 12,11.5522847 12,11 C12,10.4477153 12.4477153,10 13,10 Z"></path>
    </g>
</svg>