<svg xmlns="http://www.w3.org/2000/svg" width="16" height="16" viewBox="0 0 16 16">
  <path fill-rule="evenodd" d="M7.64644661,7.85355339 L9.06066017,6.43933983 C9.45118446,6.04881554 10.0843494,6.04881554 10.4748737,6.43933983 C10.865398,6.82986412 10.865398,7.4630291 10.4748737,7.85355339 L8.35355339,9.97487373 C8.15829124,10.1701359 7.90236893,10.267767 7.64644661,10.267767 C7.39052429,10.267767 7.13460197,10.1701359 6.93933983,9.97487373 L5.52512627,8.56066017 C5.13460197,8.17013588 5.13460197,7.5369709 5.52512627,7.14644661 C5.91565056,6.75592232 6.54881554,6.75592232 6.93933983,7.14644661 L7.64644661,7.85355339 Z M6.26756439,1 C6.61337381,0.40219863 7.25971764,0 8,0 C8.74028236,0 9.38662619,0.40219863 9.73243561,1 L11,1 C12.6568542,1 14,2.34314575 14,4 L14,12 C14,13.6568542 12.6568542,15 11,15 L5,15 C3.34314575,15 2,13.6568542 2,12 L2,4 C2,2.34314575 3.34314575,1 5,1 L6.26756439,1 Z M5,3 C4.44771525,3 4,3.44771525 4,4 L4,12 C4,12.5522847 4.44771525,13 5,13 L11,13 C11.5522847,13 12,12.5522847 12,12 L12,4 C12,3.44771525 11.5522847,3 11,3 L11,4 L5,4 L5,3 Z"/>
</svg>
