<svg xmlns="http://www.w3.org/2000/svg" width="16" height="16" viewBox="0 0 16 16">
  <path fill-rule="evenodd" d="M6.26756439,1 C6.61337381,0.40219863 7.25971764,0 8,0 C8.74028236,0 9.38662619,0.40219863 9.73243561,1 L11,1 C12.6568542,1 14,2.34314575 14,4 L14,12 C14,13.6568542 12.6568542,15 11,15 L5,15 C3.34314575,15 2,13.6568542 2,12 L2,4 C2,2.34314575 3.34314575,1 5,1 L6.26756439,1 Z M5,3 C4.44771525,3 4,3.44771525 4,4 L4,12 C4,12.5522847 4.44771525,13 5,13 L11,13 C11.5522847,13 12,12.5522847 12,12 L12,4 C12,3.44771525 11.5522847,3 11,3 L11,4 L5,4 L5,3 Z M8,5 C8.55228475,5 9,5.44771525 9,6 L9,8 C9,8.55228475 8.55228475,9 8,9 C7.44771525,9 7,8.55228475 7,8 L7,6 C7,5.44771525 7.44771525,5 8,5 Z M8,12 C7.44771525,12 7,11.5522847 7,11 C7,10.4477153 7.44771525,10 8,10 C8.55228475,10 9,10.4477153 9,11 C9,11.5522847 8.55228475,12 8,12 Z"/>
</svg>
