<svg width="16" height="16" viewBox="0 0 16 16" xmlns="http://www.w3.org/2000/svg"><title>icn/rocket</title><path d="M3.161 8.425l-2.016.063a.3.3 0 0 1-.222-.512l2.415-2.414a.3.3 0 0 1 .145-.08l2.139-.492c-.072.097-.146.196-.221.3-.36.491-1.734 2.433-1.973 2.765l-.267.37zm7.82 1.922l-.492 2.14a.3.3 0 0 1-.08.146l-2.415 2.414a.3.3 0 0 1-.511-.221l.063-2.017.356-.258c.364-.261 2.295-1.628 2.778-1.982l.301-.222zm-3.13-6.47c1.445-1.445 3.306-1.892 5.584-1.341.54 2.288.093 4.15-1.342 5.584-1.19 1.19-3.234 2.47-5.729 4.315-.127.094-.366.32-.716.68a1 1 0 0 1-1.423.01l-1.379-1.38a1 1 0 0 1 .01-1.423c.359-.35.585-.588.68-.715C5.373 7.12 6.652 5.076 7.85 3.877zm1.341 2.901a1 1 0 1 0 1.415-1.414 1 1 0 0 0-1.415 1.414z" fill="#000" fill-rule="evenodd"/></svg>