<svg width="16" height="16" viewBox="0 0 16 16" xmlns="http://www.w3.org/2000/svg" xmlns:xlink="http://www.w3.org/1999/xlink"><title>icn/scale</title><path d="M11.291 4H4.708L5.87 7.603c.437 1.352-.271 2.814-1.58 3.265A2.428 2.428 0 0 1 3.5 11C2.12 11 1 9.844 1 8.42c0-.278.043-.554.128-.817l1.206-3.735c.01-.032.022-.063.034-.093A1 1 0 0 1 3 2h10a1 1 0 0 1 .631 1.775c.013.03.024.061.034.093l1.206 3.735c.437 1.352-.271 2.814-1.58 3.265A2.428 2.428 0 0 1 12.5 11C11.12 11 10 9.844 10 8.42c0-.278.043-.554.128-.817L11.291 4zM7 12V6a1 1 0 0 1 2 0v6h2a1 1 0 0 1 0 2H5a1 1 0 0 1 0-2h2zM3.07 8.271a.48.48 0 0 0-.022.148.46.46 0 0 0 .452.467.44.44 0 0 0 .143-.024.47.47 0 0 0 .285-.59L3.5 6.942l-.43 1.328zm9.43-1.328l-.43 1.328a.48.48 0 0 0-.022.148.46.46 0 0 0 .452.467.44.44 0 0 0 .143-.024.47.47 0 0 0 .285-.59L12.5 6.942z" id="a"/></svg>