<svg width="16" height="16" viewBox="0 0 16 16" xmlns="http://www.w3.org/2000/svg" xmlns:xlink="http://www.w3.org/1999/xlink"><title>icn/snippets</title><path d="M6.222 7.671l1.162 1.626-.237.339c.681.94.738 2.231.047 3.218-.877 1.252-2.624 1.54-3.903.645s-1.605-2.636-.728-3.887c.69-.987 1.923-1.376 3.04-1.057l.619-.884zm2.276-3.25l1.427-2.039a.932.932 0 0 1 1.301-.215.932.932 0 0 1 .243 1.296L9.66 6.046 8.498 4.421zm-4.2 7.567a.932.932 0 0 0 1.3-.215.932.932 0 0 0-.242-1.296.932.932 0 0 0-1.301.215.932.932 0 0 0 .243 1.296zm4.555-2.352L4.531 3.463a.932.932 0 0 1 .243-1.296.932.932 0 0 1 1.3.215l4.323 6.173c1.117-.319 2.35.07 3.04 1.057.877 1.251.55 2.992-.728 3.887-1.279.896-3.026.607-3.903-.645-.69-.987-.634-2.277.047-3.218zm2.85 2.352a.932.932 0 0 0 .242-1.296.932.932 0 0 0-1.3-.215.932.932 0 0 0-.244 1.296.932.932 0 0 0 1.301.215z" id="a"/></svg>