<svg width="16" height="16" viewBox="0 0 16 16" xmlns="http://www.w3.org/2000/svg" xmlns:xlink="http://www.w3.org/1999/xlink"><title>icn/soft-wrap</title><path d="M10 13v.525c0 .09-.022.177-.064.253-.124.223-.384.291-.581.152l-2.157-1.524a.453.453 0 0 1-.134-.151c-.123-.224-.063-.518.134-.657l2.157-1.523a.387.387 0 0 1 .223-.073c.233 0 .422.214.422.477V11h2a1 1 0 0 0 0-2H2a1 1 0 1 1 0-2h10a3 3 0 0 1 0 6h-2zM2 3h12a1 1 0 0 1 0 2H2a1 1 0 1 1 0-2zm0 8h3a1 1 0 0 1 0 2H2a1 1 0 0 1 0-2z" id="a"/></svg>