<!-- Licensed to the Apache Software Foundation (ASF) under one or more
contributor license agreements.  See the NOTICE file distributed with
this work for additional information regarding copyright ownership.
The ASF licenses this file to You under the Apache License, Version 2.0
(the "License"); you may not use this file except in compliance with
the License.  You may obtain a copy of the License at

     http://www.apache.org/licenses/LICENSE-2.0

Unless required by applicable law or agreed to in writing, software
distributed under the License is distributed on an "AS IS" BASIS,
WITHOUT WARRANTIES OR CONDITIONS OF ANY KIND, either express or implied.
See the License for the specific language governing permissions and
limitations under the License. -->

<svg width="16" height="16" viewBox="0 0 16 16" xmlns="http://www.w3.org/2000/svg" xmlns:xlink="http://www.w3.org/1999/xlink"><title>icn/soft-unwrap</title><path d="M2 3h12a1 1 0 0 1 0 2H2a1 1 0 1 1 0-2zm5 8v-.521c0-.263.189-.477.422-.477.079 0 .156.025.223.073l2.157 1.523c.197.14.257.433.134.657a.453.453 0 0 1-.134.151L7.645 13.93c-.197.14-.457.071-.58-.152A.523.523 0 0 1 7 13.525V13H2a1 1 0 0 1 0-2h5zM2 7h12a1 1 0 0 1 0 2H2a1 1 0 1 1 0-2zm10 4h2a1 1 0 0 1 0 2h-2a1 1 0 0 1 0-2z" id="a"/></svg>