<!-- Licensed to the Apache Software Foundation (ASF) under one or more
contributor license agreements.  See the NOTICE file distributed with
this work for additional information regarding copyright ownership.
The ASF licenses this file to You under the Apache License, Version 2.0
(the "License"); you may not use this file except in compliance with
the License.  You may obtain a copy of the License at

     http://www.apache.org/licenses/LICENSE-2.0

Unless required by applicable law or agreed to in writing, software
distributed under the License is distributed on an "AS IS" BASIS,
WITHOUT WARRANTIES OR CONDITIONS OF ANY KIND, either express or implied.
See the License for the specific language governing permissions and
limitations under the License. -->
<svg t="1620798822338" class="icon" viewBox="0 0 1024 1024" version="1.1" xmlns="http://www.w3.org/2000/svg" p-id="1847" width="200" height="200"><path d="M679.765333 597.333333a21.333333 21.333333 0 0 1 16.426667 34.986667l-167.808 201.386667a21.333333 21.333333 0 0 1-32.768 0l-167.808-201.386667a21.333333 21.333333 0 0 1 16.426667-34.986667zM525.653333 187.605333a21.333333 21.333333 0 0 1 2.730667 2.730667l167.808 201.344a21.333333 21.333333 0 0 1-16.426667 34.986667H344.234667a21.333333 21.333333 0 0 1-16.426667-34.986667l167.808-201.386667a21.333333 21.333333 0 0 1 30.037333-2.688z" fill="#999999" p-id="1848"></path></svg>