<svg width="16" height="16" viewBox="0 0 16 16" xmlns="http://www.w3.org/2000/svg" xmlns:xlink="http://www.w3.org/1999/xlink"><title>icn/star-o</title><path d="M7.36 12.453l-2.126.904a1 1 0 0 1-1.389-.988l.172-2.514a1 1 0 0 0-.218-.695L2.22 7.196a1 1 0 0 1 .529-1.594l2.312-.6a1 1 0 0 0 .609-.457l1.222-2.056a1 1 0 0 1 1.719 0l1.222 2.056a1 1 0 0 0 .608.457l2.313.6a1 1 0 0 1 .528 1.594L11.704 9.16a1 1 0 0 0-.218.695l.171 2.514a1 1 0 0 1-1.389.988l-2.125-.904a1 1 0 0 0-.783 0zm2.13-2.462a3 3 0 0 1 .655-2.084l.61-.758-.816-.211a3 3 0 0 1-1.825-1.371l-.363-.61-.362.61a3 3 0 0 1-1.825 1.37l-.816.212.61.758a3 3 0 0 1 .654 2.084l-.06.888.626-.266a3 3 0 0 1 2.347 0l.626.266-.06-.888z" id="a"/></svg>