<!-- Licensed to the Apache Software Foundation (ASF) under one or more
contributor license agreements.  See the NOTICE file distributed with
this work for additional information regarding copyright ownership.
The ASF licenses this file to You under the Apache License, Version 2.0
(the "License"); you may not use this file except in compliance with
the License.  You may obtain a copy of the License at

     http://www.apache.org/licenses/LICENSE-2.0

Unless required by applicable law or agreed to in writing, software
distributed under the License is distributed on an "AS IS" BASIS,
WITHOUT WARRANTIES OR CONDITIONS OF ANY KIND, either express or implied.
See the License for the specific language governing permissions and
limitations under the License. -->
<svg t="1619507658599" class="icon" viewBox="0 0 1024 1024" version="1.1" xmlns="http://www.w3.org/2000/svg" p-id="2073" xmlns:xlink="http://www.w3.org/1999/xlink" width="200" height="200"><defs><style type="text/css"></style></defs><path d="M331.840623 793.484755 331.840623 387.450978c0-16.191531-12.457456-28.645338-27.399836-28.645338L222.235197 358.80564c-14.94238 0-27.399836 13.698094-27.399836 28.645338L194.835361 793.484755 331.840623 793.484755 331.840623 793.484755zM506.210956 793.484755 506.210956 213.081861c0-16.192747-12.453808-29.89449-27.401052-29.89449l-82.20559 0c-14.94238 0-27.399836 13.701743-27.399836 29.89449L369.204478 793.484755 506.210956 793.484755 506.210956 793.484755zM680.580073 793.484755 680.580073 536.910048c0-16.191531-12.452591-29.889625-27.399836-29.889625L570.979512 507.020423c-14.947245 0-27.405918 13.698094-27.405918 29.889625L543.573595 793.484755 680.580073 793.484755 680.580073 793.484755zM854.94919 793.484755 854.94919 387.450978c0-16.191531-12.452591-28.645338-27.399836-28.645338l-82.200725 0c-14.947245 0-27.399836 13.698094-27.399836 28.645338L717.948794 793.484755 854.94919 793.484755 854.94919 793.484755zM879.860454 830.84861" p-id="2074" fill="#ffffff"></path></svg>