<svg width="16" height="16" viewBox="0 0 16 16" xmlns="http://www.w3.org/2000/svg">
    <path d="M5.37425685,1.70007064 L5.37425685,3.09986041 L13.7497881,3.09986041 C14.4402613,3.09986041 15.0000005,3.72672501 15,4.50129097 C14.9993642,5.27385495 14.4396255,5.89956457 13.7497886,5.89885252 L5.37425685,5.89562637 L5.37425685,7.29990428 C5.37425685,7.45924957 5.32571777,7.6138272 5.23665933,7.73809763 C5.02056628,8.03962967 4.62712317,8.08788384 4.35787954,7.84587634 L1.23385867,5.03787485 C1.19791325,5.0055656 1.16526881,4.9689032 1.13652065,4.92855626 C0.921186993,4.62634361 0.965382309,4.18585544 1.23523366,3.94469839 L4.35925453,1.15286624 C4.46999623,1.05390012 4.60747228,1 4.74915062,1 C5.09438725,1 5.37425685,1.3134323 5.37425685,1.70007064 Z" class="top-arrow"></path>
    <path d="M10.6257432,8.70007064 C10.6257432,8.3134323 10.9056127,8 11.2508494,8 C11.3925277,8 11.5300038,8.05390012 11.6407455,8.15286624 L14.7647663,10.9446984 C15.0346177,11.1858554 15.078813,11.6263436 14.8634793,11.9285563 C14.8347312,11.9689032 14.8020867,12.0055656 14.7661413,12.0378748 L11.6421205,14.8458763 C11.3728768,15.0878838 10.9794337,15.0396297 10.7633407,14.7380976 C10.6742822,14.6138272 10.6257432,14.4592496 10.6257432,14.2999043 L10.6257432,12.8956264 L2.25021139,12.8988525 C1.56037451,12.8995646 1.0006358,12.2738549 1,11.501291 C0.999999469,10.726725 1.55973865,10.0998604 2.25021193,10.0998604 L10.6257432,10.0998604 L10.6257432,8.70007064 Z" class="bottom-arrow"></path>
</svg>