<!-- Licensed to the Apache Software Foundation (ASF) under one or more
contributor license agreements.  See the NOTICE file distributed with
this work for additional information regarding copyright ownership.
The ASF licenses this file to You under the Apache License, Version 2.0
(the "License"); you may not use this file except in compliance with
the License.  You may obtain a copy of the License at

     http://www.apache.org/licenses/LICENSE-2.0

Unless required by applicable law or agreed to in writing, software
distributed under the License is distributed on an "AS IS" BASIS,
WITHOUT WARRANTIES OR CONDITIONS OF ANY KIND, either express or implied.
See the License for the specific language governing permissions and
limitations under the License. -->


<svg width="12px" height="12px" viewBox="0 0 12 12" version="1.1" xmlns="http://www.w3.org/2000/svg" xmlns:xlink="http://www.w3.org/1999/xlink">
    <g id="table" stroke="none" stroke-width="1" fill="none" fill-rule="evenodd">
        <g id="list-bulleted" fill="#FFFFFF" fill-rule="nonzero">
            <path d="M1,2 C0.44771525,2 0,1.55228475 0,1 C0,0.44771525 0.44771525,0 1,0 C1.55228475,0 2,0.44771525 2,1 C2,1.55228475 1.55228475,2 1,2 Z M11,2 C10.4477153,2 10,1.55228475 10,1 C10,0.44771525 10.4477153,0 11,0 C11.5522847,0 12,0.44771525 12,1 C12,1.55228475 11.5522847,2 11,2 Z M8,2 C7.44771525,2 7,1.55228475 7,1 C7,0.44771525 7.44771525,0 8,0 C8.55228475,0 9,0.44771525 9,1 C9,1.55228475 8.55228475,2 8,2 Z M4,2 C3.44771525,2 3,1.55228475 3,1 C3,0.44771525 3.44771525,0 4,0 C4.55228475,0 5,0.44771525 5,1 C5,1.55228475 4.55228475,2 4,2 Z M1.09066667,5 L10.9093333,5 C11.512,5 12,5.448 12,6 C12,6.552 11.512,7 10.9093333,7 L1.09066667,7 C0.488,7 -1.77635684e-15,6.552 -1.77635684e-15,6 C-1.77635684e-15,5.448 0.488,5 1.09066667,5 Z M1.09066667,10 L10.9093333,10 C11.512,10 12,10.448 12,11 C12,11.552 11.512,12 10.9093333,12 L1.09066667,12 C0.488,12 -1.77635684e-15,11.552 -1.77635684e-15,11 C-1.77635684e-15,10.448 0.488,10 1.09066667,10 Z" id="a"></path>
        </g>
    </g>
</svg>