<svg width="16" height="16" viewBox="0 0 16 16" xmlns="http://www.w3.org/2000/svg" xmlns:xlink="http://www.w3.org/1999/xlink"><title>icn/tachometer</title><path d="M3 8.5V11a1 1 0 0 0 1 1h8a1 1 0 0 0 1-1V8.5A4.5 4.5 0 0 0 8.5 4h-1A4.5 4.5 0 0 0 3 8.5zM14.981 8H15v3a3 3 0 0 1-3 3H4a3 3 0 0 1-3-3V8h.019A6.5 6.5 0 0 1 7.5 2h1a6.5 6.5 0 0 1 6.481 6zM7.847 9.006l.429-1.601a.5.5 0 0 1 .966.258l-.407 1.52A2 2 0 0 1 10 11H6a2 2 0 0 1 1.847-1.994zM4.5 9a.5.5 0 1 1 0-1 .5.5 0 0 1 0 1zm7 0a.5.5 0 1 1 0-1 .5.5 0 0 1 0 1zm-5-3a.5.5 0 1 1 0-1 .5.5 0 0 1 0 1zm3 0a.5.5 0 1 1 0-1 .5.5 0 0 1 0 1z" id="a"/></svg>