<svg width="16" height="16" viewBox="0 0 16 16" xmlns="http://www.w3.org/2000/svg"><title>tanuki</title><path d="M7.118 5h1.764l1.045-2.09a1.2 1.2 0 0 1 2.146 0l2.821 5.643a1 1 0 0 1-.254 1.215l-5.68 4.733a1.5 1.5 0 0 1-1.92 0L1.36 9.768a1 1 0 0 1-.254-1.215l2.82-5.642a1.2 1.2 0 0 1 2.147 0L7.118 5zm3.276 1.447A1 1 0 0 1 9.5 7h-3a1 1 0 0 1-.894-.553L5 5.237l-1.645 3.29a.3.3 0 0 0 .076.364l4.377 3.647a.3.3 0 0 0 .384 0l4.377-3.647a.3.3 0 0 0 .076-.365L11 5.236l-.606 1.211zM6.5 10a.5.5 0 1 1 0-1 .5.5 0 0 1 0 1zm3 0a.5.5 0 1 1 0-1 .5.5 0 0 1 0 1z"/></svg>