<svg width="16" height="16" viewBox="0 0 16 16" xmlns="http://www.w3.org/2000/svg" xmlns:xlink="http://www.w3.org/1999/xlink"><title>icn/template</title><path d="M5 2h6a3 3 0 0 1 3 3v6a3 3 0 0 1-3 3H5a3 3 0 0 1-3-3V5a3 3 0 0 1 3-3zm0 2a1 1 0 0 0-1 1v6a1 1 0 0 0 1 1h6a1 1 0 0 0 1-1V5a1 1 0 0 0-1-1H5zm.8 1h1.4a.8.8 0 0 1 .8.8v1.4a.8.8 0 0 1-.8.8H5.8a.8.8 0 0 1-.8-.8V5.8a.8.8 0 0 1 .8-.8zm3.7 0h1a.5.5 0 1 1 0 1h-1a.5.5 0 0 1 0-1zm0 2h1a.5.5 0 1 1 0 1h-1a.5.5 0 0 1 0-1zm-4 2h5a.5.5 0 0 1 .5.5v1a.5.5 0 0 1-.5.5h-5a.5.5 0 0 1-.5-.5v-1a.5.5 0 0 1 .5-.5z" id="a"/></svg>