<svg width="16" height="16" viewBox="0 0 16 16" xmlns="http://www.w3.org/2000/svg" xmlns:xlink="http://www.w3.org/1999/xlink"><title>icn/time-out</title><path d="M12 13.36l-1.36 1.358a.961.961 0 1 1-1.358-1.359L10.64 12l-1.36-1.36a.961.961 0 0 1 1.36-1.358L12 10.64l1.36-1.36a.961.961 0 1 1 1.358 1.36L13.36 12l1.36 1.36a.961.961 0 1 1-1.36 1.358L12 13.36zM8 9H5a1 1 0 1 1 0-2h2V5a1 1 0 1 1 2 0v3a1 1 0 0 1-1 1zm0 6a7 7 0 1 1 7-7 4.976 4.976 0 0 0-2.084-.916A5.002 5.002 0 0 0 3 8a5.002 5.002 0 0 0 4.084 4.916c.143.772.462 1.48.916 2.084z" id="a"/></svg>