<svg width="16" height="16" viewBox="0 0 16 16" xmlns="http://www.w3.org/2000/svg" xmlns:xlink="http://www.w3.org/1999/xlink"><title>icn/todo-done</title><path d="M9.261 7.383l2.955-3.066a1.018 1.018 0 0 1 1.478 0c.408.424.408 1.11 0 1.533L10 9.683a1.023 1.023 0 0 1-.739.317c-.267 0-.535-.106-.739-.317l-2.216-2.3a1.113 1.113 0 0 1 0-1.533 1.018 1.018 0 0 1 1.478 0L9.26 7.383zM12 10a1 1 0 0 1 2 0v1a3 3 0 0 1-3 3H5a3 3 0 0 1-3-3V5a3 3 0 0 1 3-3h2a1 1 0 1 1 0 2H5a1 1 0 0 0-1 1v6a1 1 0 0 0 1 1h6a1 1 0 0 0 1-1v-1z" id="a"/></svg>