<svg width="16" height="16" viewBox="0 0 16 16" xmlns="http://www.w3.org/2000/svg" xmlns:xlink="http://www.w3.org/1999/xlink"><title>icn/unapproval</title><path d="M12.175 8.536l1.083-1.061a1.036 1.036 0 0 1 1.443 0 .986.986 0 0 1 0 1.414L13.62 9.95 14.7 11.01a.986.986 0 0 1 0 1.415c-.398.39-1.045.39-1.443 0l-1.083-1.061-1.082 1.06c-.399.391-1.045.391-1.444 0a.986.986 0 0 1 0-1.414l1.083-1.06-1.083-1.06a.986.986 0 0 1 0-1.415 1.036 1.036 0 0 1 1.444 0l1.082 1.06zm-3.84-.489c-.039.556.16 1.124.593 1.55l.36.353-.36.353a1.972 1.972 0 0 0 0 2.829c.797.78 2.09.78 2.886 0l.361-.354.361.354c.07.069.145.132.223.189-.647.47-2.149.679-5.635.679C1.077 14 1 13.331 1 11.84S1.984 8 7.124 8c.432 0 .835.016 1.21.047zM6.588 7C5.18 7 4.038 5.88 4.038 4.5S5.18 2 6.589 2C8 2 9.141 3.12 9.141 4.5S7.998 7 6.589 7z" id="a"/></svg>