<svg width="16px" height="16px" viewBox="0 0 16 16" version="1.1" xmlns="http://www.w3.org/2000/svg">
    <g fill-rule="evenodd">
        <path d="M3.84378472,5.45744972 L5.08665407,6.70031907 C5.13788527,6.75155027 5.16666667,6.8210347 5.16666667,6.89348657 C5.16666667,7.04435977 5.04435977,7.16666667 4.89348657,7.16666667 L1.2731801,7.16666667 C1.1223069,7.16666667 1,7.04435977 1,6.89348657 L1,3.2731801 C1,3.20072823 1.02878139,3.13124381 1.0800126,3.0800126 C1.18669606,2.97332913 1.35966414,2.97332913 1.4663476,3.0800126 L2.66267797,4.27634296 C3.56481504,3.46700863 4.74391608,3 6,3 C8.76142375,3 11,5.23857625 11,8 C11,10.7614237 8.76142375,13 6,13 C4.92163683,13 3.89288448,12.6568129 3.04163107,12.0312326 C2.67076949,11.7586889 2.59106707,11.2371059 2.86361074,10.8662443 C3.13615441,10.4953827 3.65773742,10.4156803 4.028599,10.688224 C4.59610216,11.1052782 5.27973007,11.3333333 6,11.3333333 C7.84094917,11.3333333 9.33333333,9.84094917 9.33333333,8 C9.33333333,6.15905083 7.84094917,4.66666667 6,4.66666667 C5.19350009,4.66666667 4.43586982,4.95451814 3.84378472,5.45744972 Z M13,4 L14,4 C14.5522847,4 15,4.44771525 15,5 C15,5.55228475 14.5522847,6 14,6 L13,6 C12.4477153,6 12,5.55228475 12,5 C12,4.44771525 12.4477153,4 13,4 Z M13,7 L14,7 C14.5522847,7 15,7.44771525 15,8 C15,8.55228475 14.5522847,9 14,9 L13,9 C12.4477153,9 12,8.55228475 12,8 C12,7.44771525 12.4477153,7 13,7 Z M13,10 L14,10 C14.5522847,10 15,10.4477153 15,11 C15,11.5522847 14.5522847,12 14,12 L13,12 C12.4477153,12 12,11.5522847 12,11 C12,10.4477153 12.4477153,10 13,10 Z"></path>
    </g>
</svg>