<svg xmlns="http://www.w3.org/2000/svg" xmlns:xlink="http://www.w3.org/1999/xlink" width="16" height="16" viewBox="0 0 16 16">
  
    <path id="upload-a" d="M7.0000004,8.99961455 L5.30021232,8.99961455 C5.1345269,8.99961455 5.00021232,8.86529997 5.00021232,8.69961455 C5.00021232,8.61392829 5.03685233,8.53233141 5.10089227,8.47540144 L7.80019436,6.07578689 C7.91384834,5.97475124 8.08512257,5.97473599 8.19879454,6.07575141 L10.8990646,8.47536596 C11.0229137,8.58542533 11.0340925,8.7750456 10.9240331,8.89889468 C10.8671022,8.96295867 10.7854894,8.99961455 10.6997845,8.99961455 L8.9999996,8.99961455 L9,9.00055601 L9,14.000556 C9,14.5528408 8.55228475,15.000556 8,15.000556 C7.44771525,15.000556 7,14.5528408 7,14.000556 L7,9.00055601 L7.00000043,8.99961455 Z M11,10 C12.1045695,10 13,9.1045695 13,8 C13,7.20593522 12.5337651,6.49753624 11.8223747,6.17581793 L11.1350272,5.86497279 L10.8241821,5.17762532 C10.5024638,4.46623485 9.79406478,4 9,4 C8.94232508,4 8.88518116,4.00238989 8.82861484,4.00712678 L7.97189859,4.07886874 L7.33035019,3.50657049 C6.96562035,3.18121041 6.49954315,3 6,3 C4.8954305,3 4,3.8954305 4,5 C4,5.05767492 4.00238989,5.11481884 4.00712678,5.17138516 L4.07886874,6.02810141 L3.50657049,6.66964981 C3.18121041,7.03437965 3,7.50045685 3,8 C3,9.1045695 3.8954305,10 5,10 C5.55228475,10 6,10.4477153 6,11 C6,11.5522847 5.55228475,12 5,12 C2.790861,12 1,10.209139 1,8 C1,6.97791375 1.38334596,6.04536274 2.01410261,5.33828224 C2.00476364,5.22675964 2,5.11393612 2,5 C2,2.790861 3.790861,1 6,1 C7.02208625,1 7.95463726,1.38334596 8.66171776,2.01410261 C8.77324036,2.00476364 8.88606388,2 9,2 C10.6222005,2 12.0188587,2.96566139 12.6464952,4.35350476 C14.0343386,4.98114126 15,6.37779948 15,8 C15,10.209139 13.209139,12 11,12 C10.4477153,12 10,11.5522847 10,11 C10,10.4477153 10.4477153,10 11,10 Z"/>
  
  
</svg>
