<svg width="16" height="16" viewBox="0 0 16 16" xmlns="http://www.w3.org/2000/svg" xmlns:xlink="http://www.w3.org/1999/xlink"><title>icn/users</title><path d="M10.38 14c.459-.485.62-1.18.62-2.16 0-1.554-.546-2.882-1.683-3.752C9.674 8.03 10.067 8 10.5 8c3.777 0 4.5 2.307 4.5 3.84S14.943 14 10.5 14h-.12zM8.6 6.125C8.856 5.64 9 5.087 9 4.5s-.144-1.14-.4-1.625a2.5 2.5 0 1 1 0 3.25zM5.5 7a2.5 2.5 0 1 1 0-5 2.5 2.5 0 0 1 0 5zm0 7C1.057 14 1 13.331 1 11.84S1.723 8 5.5 8s4.5 2.307 4.5 3.84S9.943 14 5.5 14z" id="a"/></svg>