<svg width="16" height="16" viewBox="0 0 16 16" xmlns="http://www.w3.org/2000/svg" xmlns:xlink="http://www.w3.org/1999/xlink"><title>icn/volume-up</title><path d="M2 6.02h1v3.989H2c-.552 0-1-.447-1-.998V7.017c0-.55.448-.997 1-.997zm2 0l3.333-2.766A1.002 1.002 0 0 1 9 3.997v8.034c0 .551-.448.969-1 .969-.246 0-.484-.062-.667-.226L4 10.01V6.02zm8.817 6.854a.489.489 0 0 1-.695-.047.502.502 0 0 1 .046-.702 5.486 5.486 0 0 0 1.847-4.119 5.486 5.486 0 0 0-1.836-4.11.502.502 0 0 1-.044-.702.489.489 0 0 1 .695-.044A6.486 6.486 0 0 1 15 8.006a6.486 6.486 0 0 1-2.183 4.868zm-2.009-1.999a.458.458 0 0 1-.69-.057.58.58 0 0 1 .052-.762c.537-.511.852-1.252.852-2.05 0-.79-.309-1.525-.837-2.036a.58.58 0 0 1-.047-.762.457.457 0 0 1 .69-.052C11.568 5.87 12 6.9 12 8.006c0 1.116-.44 2.155-1.192 2.869z" id="a"/></svg>